<?xml version="1.0" encoding="UTF-8" standalone="no"?>
<svg
   xmlns:dc="http://purl.org/dc/elements/1.1/"
   xmlns:cc="http://creativecommons.org/ns#"
   xmlns:rdf="http://www.w3.org/1999/02/22-rdf-syntax-ns#"
   xmlns:svg="http://www.w3.org/2000/svg"
   xmlns="http://www.w3.org/2000/svg"
   xmlns:sodipodi="http://sodipodi.sourceforge.net/DTD/sodipodi-0.dtd"
   xmlns:inkscape="http://www.inkscape.org/namespaces/inkscape"
   id="ps_x5F_cc_x5F_app_x5F_RGB.svg"
   viewBox="0 0 14.76922 14.397029"
   width="153.84604"
   height="149.99982"
   version="1.1"
   sodipodi:docname="adobe-xd.svg"
   inkscape:version="0.92.4 (5da689c313, 2019-01-14)">
  <metadata
     id="metadata15">
    <rdf:RDF>
      <cc:Work
         rdf:about="">
        <dc:format>image/svg+xml</dc:format>
        <dc:type
           rdf:resource="http://purl.org/dc/dcmitype/StillImage" />
        <dc:title></dc:title>
      </cc:Work>
    </rdf:RDF>
  </metadata>
  <defs
     id="defs13" />
  <sodipodi:namedview
     pagecolor="#ffffff"
     bordercolor="#666666"
     borderopacity="1"
     objecttolerance="10"
     gridtolerance="10"
     guidetolerance="10"
     inkscape:pageopacity="0"
     inkscape:pageshadow="2"
     inkscape:window-width="2880"
     inkscape:window-height="1795"
     id="namedview11"
     showgrid="false"
     inkscape:zoom="7.2407734"
     inkscape:cx="80.198577"
     inkscape:cy="71.345173"
     inkscape:window-x="-13"
     inkscape:window-y="-13"
     inkscape:window-maximized="1"
     inkscape:current-layer="ps_x5F_cc_x5F_app_x5F_RGB.svg" />
  <style
     id="style2">.st0{fill:#2e001e}.st1{fill:#ff2bc2}</style>
  <path
     class="st0"
     d="M 0.61539,0.59343803 H 14.15383 V 13.762658 H 0.61539 Z"
     id="path4"
     inkscape:connector-curvature="0"
     style="fill:#2e001e;stroke-width:0.0615384" />
  <path
     class="st1"
     d="M 0,-0.02194497 V 14.378038 H 14.76922 V -0.02194497 Z m 0.61539,0.615383 H 14.15383 V 13.762658 H 0.61539 Z"
     id="path6"
     inkscape:connector-curvature="0"
     style="fill:#ff2bc2;stroke-width:0.0615384" />
  <path
     class="st1"
     d="m 10.72615,6.027278 c -0.0923,-0.0431 -0.20924,-0.0615 -0.35693,-0.0615 -0.77538,0 -1.2923,0.59693 -1.2923,1.58769 0,1.13231 0.52923,1.58769 1.21846,1.58769 0.14769,0 0.30769,-0.0185 0.42461,-0.0677 v -3.04615 z m -2.75693,1.57538 c 0,-1.43384 0.92308,-2.55384 2.43693,-2.55384 0.12923,0 0.19692,0 0.32,0.0123 v -1.6 c 0,-0.0369 0.0308,-0.0615 0.0615,-0.0615 h 0.99077 c 0.0492,0 0.0615,0.0185 0.0615,0.0492 v 5.62461 c 0,0.16616 0,0.37539 0.0308,0.60308 0,0.0431 0,0.0492 -0.0369,0.0677 -0.51693,0.24615 -1.05846,0.35692 -1.57539,0.35692 -1.33538,0 -2.28923,-0.82461 -2.28923,-2.49846 z m -2.09845,-0.99692 1.72307,3.34154 c 0.0308,0.0492 0.0123,0.0985 -0.0369,0.0985 H 6.48617 c -0.0677,0 -0.0985,-0.0185 -0.12923,-0.08 C 5.96309,9.153468 5.56309,8.310398 5.15079,7.436548 h -0.0123 c -0.36923,0.82462 -0.77539,1.72308 -1.16923,2.53538 -0.0308,0.0492 -0.0615,0.0677 -0.11077,0.0677 H 2.83695 c -0.0615,0 -0.0677,-0.0492 -0.0369,-0.0862 L 4.4862,6.710358 2.85543,3.485748 c -0.0369,-0.0492 0,-0.0923 0.0431,-0.0923 h 1.05846 c 0.0615,0 0.0923,0.0123 0.11077,0.0677 0.38769,0.81846 0.78154,1.62461 1.15077,2.44923 h 0.0123 c 0.35692,-0.81231 0.75076,-1.63077 1.12615,-2.43692 0.0308,-0.0492 0.0492,-0.08 0.11077,-0.08 h 0.99077 c 0.0492,0 0.0677,0.0369 0.0369,0.0923 z"
     id="path8"
     inkscape:connector-curvature="0"
     style="fill:#ff2bc2;stroke-width:0.0615384" />
</svg>
