<?xml version="1.0" encoding="UTF-8" standalone="no"?>
<!-- Created with Inkscape (http://www.inkscape.org/) -->

<svg
   xmlns:dc="http://purl.org/dc/elements/1.1/"
   xmlns:cc="http://creativecommons.org/ns#"
   xmlns:rdf="http://www.w3.org/1999/02/22-rdf-syntax-ns#"
   xmlns:svg="http://www.w3.org/2000/svg"
   xmlns="http://www.w3.org/2000/svg"
   xmlns:sodipodi="http://sodipodi.sourceforge.net/DTD/sodipodi-0.dtd"
   xmlns:inkscape="http://www.inkscape.org/namespaces/inkscape"
   version="1.1"
   id="svg815"
   width="224.2216"
   height="224.41234"
   viewBox="0 0 224.2216 224.41234"
   sodipodi:docname="spade.svg"
   inkscape:version="0.92.4 (5da689c313, 2019-01-14)">
  <metadata
     id="metadata821">
    <rdf:RDF>
      <cc:Work
         rdf:about="">
        <dc:format>image/svg+xml</dc:format>
        <dc:type
           rdf:resource="http://purl.org/dc/dcmitype/StillImage" />
        <dc:title></dc:title>
      </cc:Work>
    </rdf:RDF>
  </metadata>
  <defs
     id="defs819" />
  <sodipodi:namedview
     pagecolor="#ffffff"
     bordercolor="#666666"
     borderopacity="1"
     objecttolerance="10"
     gridtolerance="10"
     guidetolerance="10"
     inkscape:pageopacity="0"
     inkscape:pageshadow="2"
     inkscape:window-width="2880"
     inkscape:window-height="1795"
     id="namedview817"
     showgrid="false"
     inkscape:zoom="1.7666667"
     inkscape:cx="148.61977"
     inkscape:cy="66.894539"
     inkscape:window-x="-13"
     inkscape:window-y="-13"
     inkscape:window-maximized="1"
     inkscape:current-layer="svg815"
     inkscape:snap-page="false"
     inkscape:pagecheckerboard="true"
     fit-margin-top="0"
     fit-margin-left="0"
     fit-margin-right="0"
     fit-margin-bottom="0" />
  <g
     id="g825"
     transform="matrix(0.46399009,0,0,0.46399009,-25.406976,0.3839221)">
    <g
       id="g817"
       transform="translate(3.9622641,-39.622641)">
      <path
         sodipodi:nodetypes="cc"
         inkscape:connector-curvature="0"
         id="path829"
         d="m 386.9434,522.45283 c 624.5032,-554.533391 -1004.9062,-139.93441 0,0 z"
         style="fill:#0088aa" />
      <path
         sodipodi:nodetypes="cccccccccccccccc"
         inkscape:connector-curvature="0"
         id="path827"
         d="m 211.64171,409.70225 c -27.18245,-5.25931 7.61066,-51.13763 12.76066,-59.09727 C 158.52763,357.37475 95.203225,339.56747 97.860378,261.99693 106.39973,196.21049 247.05321,77.086803 285.62096,38.795205 324.11463,81.046043 465.62665,205.34452 474.12871,263.0047 c 13.21439,85.78419 -89.37361,95.30408 -116.93042,89.79389 38.62069,57.36375 21.87207,56.01642 6.54096,61.49682 -12.92432,7.25061 -138.93862,6.87603 -152.09754,-4.59316 z M 346.2433,394.11167 c -38.03351,-36.89666 -33.43298,-65.86341 -30.98145,-96.43582 66.20645,37.31628 126.27418,23.1715 126.7258,-35.15277 C 439.25828,216.64919 325.91096,128.83256 283.8615,87.884761 242.81188,124.89718 135.51773,209.96156 133.98152,262.46546 c 1.16407,56.54338 70.13142,76.71192 130.41177,38.0139 6.7378,27.24957 6.41955,59.14291 -26.04585,92.93574 20.45959,6.58647 79.84765,7.34657 107.89586,0.69657 z"
         style="fill:#343434;fill-opacity:1" />
    </g>
  </g>
</svg>
