<?xml version="1.0" encoding="UTF-8" standalone="no"?>
<!-- Created with Inkscape (http://www.inkscape.org/) -->

<svg
   xmlns:dc="http://purl.org/dc/elements/1.1/"
   xmlns:cc="http://creativecommons.org/ns#"
   xmlns:rdf="http://www.w3.org/1999/02/22-rdf-syntax-ns#"
   xmlns:svg="http://www.w3.org/2000/svg"
   xmlns="http://www.w3.org/2000/svg"
   xmlns:sodipodi="http://sodipodi.sourceforge.net/DTD/sodipodi-0.dtd"
   xmlns:inkscape="http://www.inkscape.org/namespaces/inkscape"
   width="94.211937mm"
   height="133.08009mm"
   viewBox="0 0 94.211937 133.08009"
   version="1.1"
   id="svg914"
   inkscape:version="0.92.4 (5da689c313, 2019-01-14)"
   sodipodi:docname="css.svg">
  <defs
     id="defs908" />
  <sodipodi:namedview
     id="base"
     pagecolor="#ffffff"
     bordercolor="#666666"
     borderopacity="1.0"
     inkscape:pageopacity="0.0"
     inkscape:pageshadow="2"
     inkscape:zoom="1.979899"
     inkscape:cx="141.88514"
     inkscape:cy="262.17577"
     inkscape:document-units="mm"
     inkscape:current-layer="g1496"
     showgrid="false"
     inkscape:window-width="2880"
     inkscape:window-height="1795"
     inkscape:window-x="-13"
     inkscape:window-y="-13"
     inkscape:window-maximized="1" />
  <metadata
     id="metadata911">
    <rdf:RDF>
      <cc:Work
         rdf:about="">
        <dc:format>image/svg+xml</dc:format>
        <dc:type
           rdf:resource="http://purl.org/dc/dcmitype/StillImage" />
        <dc:title></dc:title>
      </cc:Work>
    </rdf:RDF>
  </metadata>
  <g
     inkscape:label="Layer 1"
     inkscape:groupmode="layer"
     id="layer1"
     transform="translate(-53.46207,-155.06774)">
    <g
       id="g1470"
       transform="translate(1.0690781,152.87817)">
      <g
         id="g1496">
        <path
           inkscape:connector-curvature="0"
           id="path1486"
           d="M 52.384232,68.751823 V 2.203788 H 99.553543 146.72285 V 68.751823 135.29986 H 99.553543 52.384232 Z"
           style="fill:#fefefe;stroke-width:0.07861552" />
        <path
           inkscape:connector-curvature="0"
           id="path1484"
           d="m 99.042543,135.22542 c -0.08648,-0.0395 -0.267786,-0.0742 -0.402909,-0.0773 -0.442153,-0.01 -37.637474,-10.37473 -37.745272,-10.51803 -0.05405,-0.0719 -0.09827,-0.1773 -0.09827,-0.23434 0,-0.057 -1.857292,-20.94002 -4.127315,-46.406634 -2.270023,-25.466617 -4.127264,-46.577472 -4.127202,-46.91301 6.3e-5,-0.335538 -0.04159,-1.081693 -0.09256,-1.658121 -0.07903,-0.893785 -0.07616,-1.058511 0.01954,-1.119106 0.06661,-0.04218 19.21862,-0.06354 47.124293,-0.05256 l 47.012082,0.01849 -0.024,1.297156 c -0.0261,1.410769 -8.29418,94.713795 -8.41933,95.009575 -0.0579,0.13675 -2.79201,0.91432 -18.84653,5.35979 -10.32837,2.85991 -18.93805,5.22169 -19.13262,5.2484 -0.770643,0.10578 -0.988995,0.11453 -1.13993,0.0457 z m 12.657097,-23.87686 c 6.48578,-1.79646 11.80397,-3.27714 11.81821,-3.29041 0.0142,-0.0133 0.67624,-7.30602 1.47114,-16.20614 0.79489,-8.90011 1.99491,-22.335116 2.6667,-29.855563 0.67179,-7.520449 1.22144,-13.702576 1.22144,-13.738062 0,-0.03549 -6.61549,-0.06452 -14.7011,-0.06452 H 99.474928 v 5.738933 5.738933 h 8.239602 c 6.78346,0 8.26519,0.01871 8.38441,0.10588 0.1398,0.102228 0.12669,0.310277 -0.38036,6.033741 -0.28883,3.260323 -0.52411,5.951867 -0.52285,5.981207 0.001,0.02934 -0.0533,0.108939 -0.12124,0.176885 -0.11063,0.110635 -0.93181,0.123538 -7.86155,0.123538 h -7.738012 v 5.738933 5.738933 h 7.186892 c 3.95279,0 7.24285,0.02147 7.31124,0.04772 0.0857,0.03288 0.12439,0.149031 0.12448,0.373423 1.6e-4,0.322206 -1.21676,14.17257 -1.30065,14.803648 -0.0274,0.206484 -0.0928,0.346278 -0.17729,0.378998 -0.0736,0.02851 -2.94627,0.810793 -6.38374,1.738393 -3.43746,0.92761 -6.364906,1.72383 -6.505432,1.76938 l -0.2555,0.0828 v 5.97721 5.9772 l 0.216193,-0.0524 c 0.118906,-0.0288 5.522739,-1.52223 12.008519,-3.31868 z M 91.770607,20.542517 c -0.06486,-0.02469 -0.143914,-0.08381 -0.175681,-0.131371 -0.09251,-0.138513 -0.07251,-5.301689 0.02122,-5.476812 0.07886,-0.147346 0.208124,-0.152063 4.166622,-0.152063 h 4.085242 v -0.35377 -0.35377 h -4.085242 c -3.958498,0 -4.087765,-0.0047 -4.166622,-0.152063 -0.05394,-0.100789 -0.08138,-2.06427 -0.08138,-5.8231633 0,-4.8101334 0.01705,-5.6881511 0.112307,-5.7834088 0.09569,-0.095689 1.171546,-0.1123079 7.270438,-0.1123079 h 7.158139 l 0.0431,0.1768849 c 0.0237,0.097287 0.0332,1.2912599 0.0212,2.6532737 l -0.022,2.4763888 -4.10766,0.020355 -4.107657,0.020355 v 0.3530685 0.3530687 h 4.032967 c 3.03194,0 4.0564,0.023416 4.12732,0.094339 0.0717,0.071725 0.0943,1.5315144 0.0943,6.0899364 0,5.847213 -0.004,5.997612 -0.15206,6.07698 -0.16098,0.08615 -14.009971,0.109579 -14.234578,0.02408 z m 17.126593,0.0047 c -0.0712,-0.01892 -0.15034,-0.112103 -0.17581,-0.207073 -0.0793,-0.295762 -0.0538,-5.140499 0.0282,-5.356181 l 0.0767,-0.201654 h 4.08996 4.08995 v -0.35377 -0.35377 l -4.02905,-0.0012 c -2.40104,-7.07e-4 -4.07669,-0.03132 -4.14697,-0.07573 -0.17544,-0.110881 -0.22074,-11.5058841 -0.0464,-11.6801978 0.0977,-0.097673 1.1289,-0.1138122 7.27194,-0.1138122 h 7.15813 l 0.0431,0.1768849 c 0.0237,0.097287 0.0332,1.2912599 0.0211,2.6532737 l -0.022,2.4763888 -4.10766,0.020355 -4.10766,0.020355 v 0.3530685 0.3530687 h 4.00296 c 2.20163,0 4.05892,0.021473 4.12732,0.047719 0.11191,0.042943 0.12435,0.6556461 0.12435,6.1228414 v 6.075123 l -0.17688,0.0474 c -0.19934,0.05342 -14.0199,0.05042 -14.22135,-0.0031 z M 74.444453,20.161412 c -0.02633,-0.06862 -0.04788,-4.086617 -0.04788,-8.928885 0,-7.5254194 0.01631,-8.8204347 0.112308,-8.9164311 0.168701,-0.1687007 14.22917,-0.1687007 14.397871,0 0.09322,0.093216 0.112308,0.5983764 0.112308,2.9716665 0,2.119125 -0.02442,2.8837811 -0.09434,2.9536973 -0.07095,0.070946 -1.104111,0.094339 -4.166622,0.094339 h -4.072284 v 2.8301583 2.830159 H 84.7642 c 3.352868,0 4.094246,0.01912 4.167566,0.107461 0.0639,0.07699 0.08335,0.963024 0.06859,3.124967 l -0.0206,3.017505 -7.243714,0.02006 c -6.554504,0.01815 -7.248269,0.0082 -7.291589,-0.104699 z"
           style="fill:#e9e9e9;stroke-width:0.07861552" />
        <path
           inkscape:connector-curvature="0"
           id="path1482"
           d="m 98.963927,135.20013 c -2.236495,-0.56795 -37.983342,-10.54714 -38.026922,-10.61569 -0.03294,-0.0518 -0.06043,-0.13411 -0.06109,-0.18288 -6.29e-4,-0.0488 -1.872007,-21.11576 -4.158543,-46.815538 -2.286537,-25.699782 -4.198605,-47.272076 -4.249041,-47.938428 -0.07456,-0.985011 -0.07262,-1.223665 0.01037,-1.276336 0.05614,-0.03563 21.257509,-0.05647 47.114153,-0.0463 l 47.012076,0.01849 -0.0225,0.825463 c -0.0419,1.538927 -8.43375,95.313209 -8.53931,95.422699 -0.0962,0.0998 -36.98412,10.3667 -38.057188,10.59238 -0.609788,0.12825 -0.58226,0.12782 -1.022002,0.0161 z M 111.5529,111.47256 c 6.56649,-1.81976 11.96874,-3.33704 12.005,-3.37172 0.0363,-0.0347 0.75108,-7.73497 1.58847,-17.11173 0.83739,-9.376763 2.03707,-22.80897 2.66596,-29.849344 0.62888,-7.040375 1.14342,-12.851044 1.14342,-12.912599 0,-0.09661 -4.02588,-0.111917 -29.441514,-0.111917 H 70.072724 v 0.263462 c 0,0.282195 0.911478,10.478311 0.986695,11.037518 l 0.04494,0.334116 22.420259,0.0012 c 12.701082,7.08e-4 22.467422,0.03107 22.529052,0.0701 0.16449,0.10418 -0.88701,11.94952 -1.07362,12.094446 -0.10051,0.07806 -4.51224,0.09827 -21.455621,0.09827 l -21.329087,10e-7 -0.0017,0.216193 c -0.0023,0.288927 0.941863,11.01614 0.989436,11.242019 l 0.03726,0.176884 H 93.49522 c 11.15118,0 20.33084,0.02147 20.39923,0.04772 0.0862,0.03307 0.12376,0.147664 0.12243,0.373424 -0.004,0.691502 -1.31747,14.923151 -1.38309,14.986782 -0.0382,0.03701 -3.02801,0.865777 -6.64412,1.841725 l -6.574756,1.77443 -6.396809,-1.72735 c -3.518246,-0.950049 -6.475433,-1.762312 -6.571526,-1.805048 -0.09609,-0.04274 -0.192421,-0.158496 -0.214059,-0.257253 -0.02164,-0.09876 -0.214733,-2.168924 -0.429101,-4.600368 -0.214368,-2.431444 -0.41199,-4.456777 -0.43916,-4.500738 -0.03275,-0.05299 -1.995419,-0.07993 -5.823001,-0.07993 h -5.773605 l -0.0011,0.176885 c -0.003,0.464909 1.585151,18.036922 1.638963,18.134332 0.05522,0.1 23.733092,6.74939 24.079942,6.76233 0.07063,0.003 5.500992,-1.48408 12.067482,-3.30384 z M 91.661253,20.318647 c -0.02633,-0.06862 -0.04788,-1.282237 -0.04788,-2.696925 0,-1.895747 0.02481,-2.596967 0.09434,-2.666497 0.07095,-0.07095 1.104111,-0.09434 4.166622,-0.09434 h 4.072284 V 14.428501 13.996116 H 95.86138 c -3.958498,0 -4.087766,-0.0047 -4.166623,-0.152063 -0.08798,-0.164396 -0.120502,-11.2896103 -0.03366,-11.515912 0.04303,-0.1121313 0.749856,-0.124353 7.191822,-0.124353 h 7.144101 l 0.0431,0.1768849 c 0.0237,0.097287 0.0332,1.2735714 0.0211,2.6139659 l -0.022,2.4370811 -4.12731,0.039308 -4.127314,0.039308 V 7.903413 8.2964906 l 4.059304,0.020357 c 3.29482,0.016523 4.07592,0.040362 4.14747,0.126581 0.0638,0.076891 0.0826,1.7428974 0.068,6.0330384 l -0.0202,5.926813 -7.165091,0.02007 c -6.482814,0.01816 -7.169656,0.0082 -7.212974,-0.104699 z m 17.187567,-2.647256 0.0207,-2.771197 4.10766,-0.02036 4.10766,-0.02036 v -0.430983 -0.430983 l -4.10766,-0.02036 -4.10766,-0.02035 -0.0202,-5.8765101 -0.0202,-5.8765099 h 7.19488 7.19488 l -0.0207,2.6139659 -0.0207,2.613966 -4.10766,0.020355 -4.10766,0.020355 v 0.431684 0.4316842 h 4.00296 c 2.20163,0 4.05892,0.021473 4.12731,0.047719 0.11189,0.042937 0.12435,0.6495258 0.12435,6.0533949 v 6.005676 h -7.19432 -7.19433 z M 74.52307,20.0828 C 74.460595,19.919992 74.460439,2.4909416 74.522912,2.328141 74.56594,2.2160097 75.272768,2.203788 81.714734,2.203788 h 7.144104 l 0.04307,0.1768849 c 0.02369,0.097287 0.03321,1.4504563 0.02115,3.0070435 l -0.02192,2.8301586 -4.127315,0.039308 -4.127315,0.039308 v 2.869466 2.869466 l 4.041512,0.02037 c 2.846675,0.01435 4.072967,0.04648 4.147905,0.108671 0.08668,0.07194 0.102576,0.636257 0.0858,3.045631 l -0.02059,2.957334 -7.165097,0.02006 c -6.482814,0.01816 -7.169656,0.0082 -7.212974,-0.104699 z"
           style="fill:#9dafee;stroke-width:0.07861552" />
        <path
           inkscape:connector-curvature="0"
           id="path1480"
           d="M 80.229909,129.95746 C 69.710007,127.02838 61.071663,124.59999 61.03359,124.56104 60.995517,124.52209 59.173967,104.3961 56.985702,79.836611 52.173255,25.825214 52.476184,29.212494 52.417501,28.756179 l -0.04802,-0.373424 H 99.516986 146.6645 l -0.0479,0.373424 c -0.0264,0.205383 -1.96155,21.829563 -4.30043,48.053734 -2.33887,26.224167 -4.28013,47.708757 -4.31388,47.743517 -0.0553,0.0569 -37.97915,10.60336 -38.448716,10.69239 -0.11796,0.0224 -7.843854,-2.09201 -19.323635,-5.28836 z m 30.898081,-18.2831 c 6.32456,-1.75201 11.73549,-3.25578 12.02428,-3.34172 l 0.52507,-0.15627 0.0472,-0.41216 c 0.026,-0.22669 0.77238,-8.548874 1.65869,-18.493737 0.88631,-9.944863 2.0704,-23.222908 2.6313,-29.506767 0.5609,-6.283859 1.01982,-11.49312 1.01982,-11.576135 0,-0.14857 -0.46269,-0.150937 -29.515484,-0.150937 -16.233519,0 -29.531076,0.02653 -29.550128,0.05896 -0.02473,0.04209 0.999536,11.555647 1.042073,11.713712 0.0029,0.01081 10.096574,0.0202 22.430366,0.02086 12.333793,6.29e-4 22.472683,0.03137 22.530863,0.06825 0.0874,0.05536 0.0144,1.093043 -0.41863,5.952971 -0.28843,3.237261 -0.56147,5.930577 -0.60676,5.985148 -0.0659,0.07944 -4.34222,0.09922 -21.447727,0.09922 -17.021653,0 -21.372338,0.01998 -21.39959,0.09827 -0.02568,0.07377 0.990262,11.573328 1.031389,11.674404 0.0044,0.01081 9.171746,0.01965 20.371883,0.01965 18.829025,0 20.367625,0.0097 20.413525,0.129362 0.0697,0.181625 -1.25527,14.96308 -1.35331,15.097732 -0.0452,0.0621 -2.92591,0.87871 -6.60371,1.871997 l -6.5235,1.76184 -6.512487,-1.7594 c -3.581867,-0.967669 -6.533557,-1.780475 -6.55931,-1.80623 -0.02575,-0.02575 -0.231965,-2.114443 -0.45825,-4.641531 -0.226283,-2.527088 -0.434078,-4.631358 -0.461764,-4.676153 -0.03399,-0.05501 -1.938698,-0.08145 -5.865714,-0.08145 -5.389563,0 -5.819113,0.0097 -5.866411,0.132994 -0.06528,0.170116 1.543008,18.27869 1.631742,18.37265 0.07744,0.082 23.84969,6.70953 24.110155,6.72173 0.09636,0.004 5.349839,-1.42526 11.674409,-3.17726 z M 91.779508,20.335389 c -0.06413,-0.07727 -0.08376,-0.855269 -0.06894,-2.732307 l 0.02073,-2.624273 4.127315,-0.03931 4.127315,-0.03931 V 14.428501 13.956808 L 95.858614,13.9175 91.731299,13.878192 91.711142,8.0409901 91.690985,2.203788 h 7.154515 7.15452 v 2.5936109 2.5936108 l -4.10766,0.020355 -4.107666,0.020355 -0.02339,0.4906438 -0.02339,0.4906439 4.111386,0.020357 4.1114,0.020357 v 5.9747796 5.974779 l -7.045767,0.02007 c -5.8984,0.0168 -7.060371,0.0025 -7.135431,-0.08796 z m 17.145002,0.01286 c -0.10866,-0.108664 -0.13707,-5.141126 -0.03,-5.309762 0.0477,-0.07518 0.99861,-0.102226 4.14576,-0.117924 l 4.08381,-0.02037 V 14.4285 13.956807 l -4.08381,-0.02037 c -3.14715,-0.0157 -4.09802,-0.04274 -4.14576,-0.117923 -0.0719,-0.113144 -0.0881,-11.3042484 -0.0167,-11.490374 0.043,-0.1121231 0.74579,-0.124353 7.1456,-0.124353 6.39982,0 7.10258,0.01223 7.14561,0.124353 0.071,0.1851415 0.0554,4.8518429 -0.0166,4.965286 -0.0477,0.075179 -0.99861,0.1022256 -4.14576,0.1179233 l -4.08381,0.02037 V 7.903413 8.3751061 l 4.04151,0.020375 c 2.82516,0.014243 4.07325,0.046715 4.14697,0.1078955 0.14662,0.1216856 0.15749,11.6985024 0.0111,11.8448734 -0.13674,0.136738 -14.06123,0.136738 -14.19797,0 z M 74.606219,20.075715 c -0.02883,-0.02882 -0.05241,-4.061801 -0.05241,-8.962169 V 2.203788 h 7.154013 7.154012 V 5.1911776 8.1785673 H 84.78955 c -3.062512,0 -4.095676,0.023392 -4.166623,0.094339 -0.144959,0.1449592 -0.134351,5.6707487 0.01112,5.7914777 0.07372,0.06118 1.321807,0.09365 4.146969,0.107896 l 4.041512,0.02037 0.0206,2.967736 0.0206,2.967736 H 81.76118 c -3.906401,0 -7.126132,-0.02359 -7.154957,-0.05241 z"
           style="fill:#6e8ded;stroke-width:0.07861552" />
        <path
           inkscape:connector-curvature="0"
           id="path1478"
           d="m 99.317697,135.24781 c -0.06486,-0.0209 -0.188677,-0.0701 -0.275154,-0.10935 -0.08648,-0.0392 -8.647707,-2.42659 -19.024956,-5.3053 -10.377249,-2.87872 -18.898825,-5.26486 -18.936836,-5.30256 -0.03801,-0.0377 -1.973721,-21.41221 -4.301576,-47.498921 -2.327856,-26.086711 -4.249203,-47.501137 -4.26966,-47.587614 -0.02046,-0.08648 -0.05355,-0.351805 -0.07353,-0.589617 l -0.03634,-0.432385 h 47.127703 47.127712 l -0.0447,0.196539 c -0.0246,0.108096 -1.9684,21.717319 -4.31961,48.020496 -2.35121,26.303182 -4.3058,47.852722 -4.34354,47.887892 -0.0377,0.0352 -8.57678,2.42093 -18.97564,5.30172 -10.39887,2.88078 -18.977794,5.27038 -19.064271,5.31022 -0.239896,0.11051 -0.459133,0.151 -0.589616,0.10888 z m 12.164213,-23.61462 c 6.56229,-1.81789 11.99154,-3.32322 12.065,-3.34518 0.0735,-0.022 0.153,-0.1012 0.17676,-0.17607 0.0384,-0.12114 0.72619,-7.76579 4.40572,-48.972177 0.5377,-6.021688 0.95751,-11.000998 0.9329,-11.065134 -0.0394,-0.102786 -3.53646,-0.116467 -29.497504,-0.115407 -17.797411,7.08e-4 -29.498016,0.02984 -29.567128,0.07356 -0.09879,0.06249 -0.04266,0.861655 0.412043,5.866422 0.310069,3.412807 0.562965,5.838109 0.615347,5.901225 0.0747,0.09 3.679758,0.107153 22.524034,0.107153 h 22.435108 l -0.002,0.255501 c -0.003,0.492915 -1.00936,11.533877 -1.05859,11.613532 -0.0338,0.05464 -6.92345,0.08053 -21.431018,0.08053 -19.384174,0 -21.385686,0.01156 -21.428756,0.1238 -0.08511,0.221787 0.979564,11.688307 1.091882,11.759588 0.05527,0.03507 9.234502,0.06431 20.398302,0.06497 11.1638,7.86e-4 20.31257,0.02773 20.3306,0.06016 0.0683,0.122766 -1.30158,14.997152 -1.3891,15.083684 -0.0488,0.04828 -3.00938,0.874417 -6.57898,1.835863 l -6.4902,1.74808 -6.481365,-1.74715 c -3.564751,-0.960937 -6.50431,-1.76938 -6.532353,-1.79655 -0.02804,-0.02717 -0.232862,-2.101267 -0.455153,-4.609102 -0.22229,-2.507834 -0.419341,-4.603921 -0.437891,-4.657969 -0.02658,-0.07745 -1.291714,-0.09827 -5.971667,-0.09827 h -5.937939 l 0.0033,0.216192 c 0.01063,0.698633 1.634256,18.276279 1.693524,18.334409 0.06376,0.0625 23.903954,6.73122 24.1465,6.75437 0.0532,0.005 5.465884,-1.47813 12.028174,-3.29602 z M 91.73971,20.239619 c -0.02625,-0.06839 -0.04772,-1.249191 -0.04772,-2.623993 0,-1.99466 0.0213,-2.517323 0.105456,-2.587162 0.07372,-0.06118 1.321807,-0.09365 4.146969,-0.107895 l 4.041512,-0.02037 0.0234,-0.491347 0.0234,-0.491347 h -4.089008 c -3.962207,0 -4.091516,-0.0047 -4.170374,-0.152063 -0.05395,-0.100813 -0.08138,-2.074737 -0.08138,-5.8568558 V 2.203788 h 7.155086 7.155096 l -0.0207,2.5746582 -0.0207,2.5746582 -4.10634,0.020354 -4.106354,0.020354 -0.0461,0.1836783 c -0.02536,0.101023 -0.03479,0.321814 -0.02098,0.4906465 l 0.02513,0.3069682 4.127324,0.041063 c 2.27003,0.022585 4.13616,0.049118 4.14697,0.058962 0.0108,0.00984 0.0197,2.6888606 0.0197,5.9533696 v 5.935471 h -7.10631 c -6.407488,0 -7.110986,-0.01223 -7.154013,-0.124353 z m 17.1877,-2.568228 0.0207,-2.692582 4.10766,-0.02036 4.10766,-0.02036 v -0.509598 -0.509598 l -4.10766,-0.02036 -4.10766,-0.02036 -0.0202,-5.8372019 -0.0202,-5.8372021 h 7.11629 7.11628 l -0.0207,2.5746582 -0.0207,2.5746582 -4.08801,0.039308 -4.088,0.039308 -0.0234,0.4913469 -0.0234,0.491347 h 4.00671 c 2.20369,0 4.06267,0.021473 4.13107,0.047719 0.11187,0.042929 0.12435,0.6425973 0.12435,5.9747797 v 5.92706 h -7.11574 -7.11573 z m -34.320776,2.40474 c -0.02905,-0.02905 -0.05283,-4.062217 -0.05283,-8.962585 V 2.203788 h 7.154958 7.154958 l -0.0206,2.9677358 -0.0206,2.9677357 -4.127315,0.039308 -4.127314,0.039308 v 2.9480815 2.948082 l 4.127314,0.03931 4.127315,0.03931 v 2.948081 2.948082 l -7.081533,0.02007 c -3.894842,0.01104 -7.105303,-0.0037 -7.134358,-0.03276 z"
           style="fill:#5072e8;stroke-width:0.07861552" />
        <path
           inkscape:connector-curvature="0"
           id="path1476"
           d="m 99.31473,135.23467 c -0.06323,-0.0204 -0.132645,-0.063 -0.154264,-0.0949 -0.02162,-0.0318 -8.577844,-2.42891 -19.013832,-5.32687 -10.435989,-2.89796 -19.001155,-5.29879 -19.033704,-5.33518 -0.03255,-0.0364 -1.965599,-21.47467 -4.295669,-47.640645 -2.33007,-26.165971 -4.259874,-47.56006 -4.288453,-47.542419 -0.02858,0.01764 -0.06396,-0.171485 -0.07862,-0.420279 l -0.02665,-0.452354 47.005724,0.01985 c 25.853148,0.01092 47.025228,0.03935 47.049068,0.06319 0.0238,0.02384 -1.87959,21.612552 -4.22982,47.974924 -3.05786,34.299593 -4.30153,47.953943 -4.37289,48.010193 -0.0549,0.0432 -8.66068,2.44888 -19.12406,5.34586 -10.46339,2.89698 -19.010764,5.28972 -18.994172,5.31722 0.04008,0.0664 -0.296813,0.12832 -0.44266,0.0814 z m 13.08259,-23.79946 c 9.64967,-2.67549 11.32006,-3.15942 11.37404,-3.29515 0.0348,-0.0875 0.70438,-7.376 1.48796,-16.19666 0.78358,-8.820661 1.97124,-22.157783 2.63923,-29.638049 0.668,-7.480267 1.22037,-13.753975 1.2275,-13.941574 0.008,-0.218147 -0.0272,-0.368506 -0.0983,-0.417154 -0.13513,-0.09236 -59.039861,-0.0039 -59.13854,0.08884 -0.0573,0.05384 0.908669,11.246717 1.008511,11.685833 0.02095,0.09212 0.118069,0.188923 0.215828,0.215118 0.09776,0.0262 10.231097,0.04811 22.518527,0.0487 l 22.340784,0.0011 -0.0422,0.412731 c -0.0232,0.227003 -0.26007,2.871432 -0.5264,5.87651 l -0.48424,5.463779 -21.397725,0.03931 c -15.682841,0.02881 -21.421312,0.0629 -21.486052,0.127642 -0.06536,0.06537 0.04644,1.598379 0.430037,5.896164 0.285103,3.194304 0.531987,5.846194 0.548631,5.893072 0.02157,0.06077 5.883689,0.100715 20.413772,0.139103 11.210927,0.02962 20.394367,0.06472 20.407647,0.07799 0.048,0.048 -1.31242,14.942389 -1.37003,14.99977 -0.0706,0.07027 -12.840678,3.526315 -13.029769,3.526315 -0.124577,0 -12.945721,-3.445427 -12.9915,-3.491205 -0.01205,-0.01205 -0.200333,-2.052777 -0.418402,-4.534944 -0.218069,-2.482159 -0.429208,-4.592624 -0.469196,-4.689911 l -0.07271,-0.176885 h -5.932518 c -3.512823,0 -5.950692,0.02941 -5.977078,0.0721 -0.08605,0.139229 1.595188,18.502965 1.703139,18.602975 0.07939,0.0736 23.060345,6.5044 24.000109,6.71604 0.290316,0.0654 -0.67807,0.32385 13.118935,-3.50153 z M 91.823435,20.31198 c -0.02905,-0.02905 -0.05283,-1.232061 -0.05283,-2.673346 v -2.620517 h 4.01456 c 2.616997,0 4.067496,-0.02833 4.166622,-0.08138 0.120783,-0.06464 0.152063,-0.16653 0.152063,-0.495278 0,-0.227643 -0.0424,-0.456349 -0.0943,-0.508235 -0.07094,-0.07095 -1.104109,-0.09434 -4.166621,-0.09434 H 91.770607 V 8.0213362 2.203788 h 7.114705 7.114708 v 2.5060705 c 0,2.0000368 -0.0213,2.523743 -0.10546,2.5935913 -0.0737,0.06118 -1.32181,0.093653 -4.14697,0.1078955 l -4.041511,0.020375 V 7.9427211 8.453722 l 4.127311,0.039308 4.12732,0.039308 v 5.896164 5.896164 l -7.042224,0.02007 c -3.873223,0.01104 -7.065995,-0.0037 -7.095051,-0.03276 z m 17.138185,0 c -0.0291,-0.02905 -0.0528,-1.232061 -0.0528,-2.673346 v -2.620517 h 4.01456 c 2.617,0 4.0675,-0.02833 4.16662,-0.08138 0.12121,-0.06487 0.15207,-0.1666 0.15207,-0.501375 0,-0.255353 -0.0413,-0.454302 -0.10546,-0.507514 -0.0737,-0.06118 -1.32181,-0.09365 -4.14697,-0.107895 l -4.04151,-0.02038 -0.0202,-5.7978946 -0.0202,-5.7978944 h 7.11521 7.11521 v 2.5550043 c 0,1.4052524 -0.009,2.5630585 -0.0196,2.5729025 -0.0108,0.00984 -1.87695,0.036377 -4.14697,0.058962 l -4.12732,0.041063 -0.0234,0.4913469 c -0.0129,0.2702409 -0.0129,0.4994012 0,0.5092452 0.0129,0.00984 1.88069,0.036377 4.15072,0.058962 l 4.12731,0.041063 v 5.8961641 5.896164 l -7.04222,0.02007 c -3.87322,0.01104 -7.066,-0.0037 -7.09505,-0.03276 z M 74.669397,20.029856 c -0.02019,-0.05405 -0.04561,-4.087026 -0.05649,-8.962175 l -0.01979,-8.8639051 7.134359,6.1e-6 7.134358,6e-6 v 2.893051 c 0,2.1453301 -0.02438,2.9174332 -0.09434,2.9873897 -0.07095,0.070946 -1.104111,0.094339 -4.166622,0.094339 h -4.072284 v 2.9789783 c 0,2.643917 0.01399,2.984345 0.124353,3.026697 0.06839,0.02625 1.921901,0.04772 4.118904,0.04772 3.569986,0 3.999622,0.01322 4.042269,0.124353 0.02625,0.06839 0.04772,1.352579 0.04772,2.853744 0,2.018038 -0.02459,2.753977 -0.09434,2.823728 -0.1404,0.1404 -14.045632,0.136524 -14.098097,-0.0039 z"
           style="fill:#2864ef;stroke-width:0.07861552" />
        <path
           inkscape:connector-curvature="0"
           id="path1474"
           d="m 99.210877,135.16108 c 0.04935,-0.0318 -8.50004,-2.44186 -18.998636,-5.35576 l -19.088355,-5.298 -0.0404,-0.2444 c -0.02222,-0.13441 -1.944422,-21.64278 -4.271558,-47.796362 -2.327135,-26.153586 -4.253502,-47.45053 -4.280815,-47.326541 -0.03244,0.147272 -0.05073,0.04826 -0.05276,-0.285569 -0.0017,-0.28105 0.01475,-0.466779 0.03656,-0.412731 0.03166,0.07846 9.508487,0.09827 47.016029,0.09827 h 46.976368 l -0.0489,0.452039 c -0.0269,0.248622 -1.94151,21.695918 -4.25467,47.660657 -2.31316,25.964737 -4.2247,47.350767 -4.24787,47.524507 l -0.0421,0.31587 -19.13306,5.30513 c -10.52319,2.91782 -19.092325,5.33112 -19.042529,5.36289 0.04979,0.0318 -0.06866,0.0578 -0.263233,0.0578 -0.194573,0 -0.313396,-0.026 -0.264051,-0.0578 z m 15.977663,-12.39696 c 8.49061,-2.35461 15.45597,-4.29962 15.47858,-4.32222 0.0443,-0.0443 7.32361,-81.411995 7.32723,-81.902944 l 0.002,-0.294966 -19.20184,0.01981 -19.201839,0.01981 -0.02016,5.797894 -0.02016,5.797894 -14.759556,0.0012 c -9.109729,7.08e-4 -14.804453,0.02959 -14.876843,0.07536 -0.102683,0.06492 -0.05091,0.805754 0.415737,5.949488 0.296741,3.270884 0.570729,5.920769 0.618083,5.977828 0.06923,0.08342 2.73478,0.106188 14.324673,0.122357 l 14.239613,0.01987 v 5.856856 5.856856 l -13.757716,0.03986 c -7.566744,0.02192 -13.76656,0.04845 -13.77737,0.05896 -0.100899,0.09807 0.962003,11.786015 1.085335,11.934622 0.07986,0.09623 1.969282,0.11503 13.271434,0.132082 l 13.178317,0.01988 0.01998,9.193754 c 0.01105,5.082289 -0.01036,9.224099 -0.04786,9.261599 -0.06529,0.0653 -12.887683,-3.35277 -12.996183,-3.464396 -0.02888,-0.0297 -0.233508,-2.088186 -0.454736,-4.574401 -0.221229,-2.486216 -0.419881,-4.578481 -0.441448,-4.649479 -0.02157,-0.071 -0.11764,-0.150116 -0.213496,-0.175816 -0.09585,-0.02569 -2.741195,-0.0472 -5.878534,-0.04779 -4.656528,-8.65e-4 -5.730824,0.01835 -5.848911,0.1047 -0.139508,0.102011 -0.116185,0.427393 0.655071,9.139054 0.439852,4.968308 0.817721,9.145788 0.839708,9.283298 0.03468,0.21688 0.08914,0.26601 0.410866,0.37062 0.203988,0.0663 5.606682,1.57223 12.005985,3.34646 6.399303,1.77424 11.714695,3.26057 11.811982,3.30298 l 0.176885,0.0771 v 5.97647 c 0,4.74462 0.02035,5.97646 0.09876,5.97646 0.05432,0 7.045623,-1.92651 15.536233,-4.28111 z M 91.823435,20.31198 c -0.02905,-0.02905 -0.05283,-1.232061 -0.05283,-2.673346 v -2.620517 h 4.01456 c 2.616997,0 4.067496,-0.02833 4.166622,-0.08138 0.120783,-0.06464 0.152063,-0.16653 0.152063,-0.495278 0,-0.227643 -0.0424,-0.456349 -0.0943,-0.508235 -0.07094,-0.07095 -1.104109,-0.09434 -4.166621,-0.09434 H 91.770607 V 8.0213362 2.203788 h 7.114705 7.114708 v 2.5060705 c 0,2.0000368 -0.0213,2.523743 -0.10546,2.5935913 -0.0737,0.06118 -1.32181,0.093653 -4.14697,0.1078955 l -4.041511,0.020375 V 7.9427211 8.453722 l 4.127311,0.039308 4.12732,0.039308 v 5.896164 5.896164 l -7.042224,0.02007 c -3.873223,0.01104 -7.065995,-0.0037 -7.095051,-0.03276 z m 17.138185,0 c -0.0291,-0.02905 -0.0528,-1.232061 -0.0528,-2.673346 v -2.620517 h 4.01456 c 2.617,0 4.0675,-0.02833 4.16662,-0.08138 0.12121,-0.06487 0.15207,-0.1666 0.15207,-0.501375 0,-0.255353 -0.0413,-0.454302 -0.10546,-0.507514 -0.0737,-0.06118 -1.32181,-0.09365 -4.14697,-0.107895 l -4.04151,-0.02038 -0.0202,-5.7978946 -0.0202,-5.7978944 h 7.11521 7.11521 v 2.5550043 c 0,1.4052524 -0.009,2.5630585 -0.0196,2.5729025 -0.0108,0.00984 -1.87695,0.036377 -4.14697,0.058962 l -4.12732,0.041063 -0.0234,0.4913469 c -0.0129,0.2702409 -0.0129,0.4994012 0,0.5092452 0.0129,0.00984 1.88069,0.036377 4.15072,0.058962 l 4.12731,0.041063 v 5.8961641 5.896164 l -7.04222,0.02007 c -3.87322,0.01104 -7.066,-0.0037 -7.09505,-0.03276 z M 74.669397,20.029856 c -0.02019,-0.05405 -0.04561,-4.087026 -0.05649,-8.962175 l -0.01979,-8.8639051 7.134359,6.1e-6 7.134358,6e-6 v 2.893051 c 0,2.1453301 -0.02438,2.9174332 -0.09434,2.9873897 -0.07095,0.070946 -1.104111,0.094339 -4.166622,0.094339 h -4.072284 v 2.9789783 c 0,2.643917 0.01399,2.984345 0.124353,3.026697 0.06839,0.02625 1.921901,0.04772 4.118904,0.04772 3.569986,0 3.999622,0.01322 4.042269,0.124353 0.02625,0.06839 0.04772,1.352579 0.04772,2.853744 0,2.018038 -0.02459,2.753977 -0.09434,2.823728 -0.1404,0.1404 -14.045632,0.136524 -14.098097,-0.0039 z"
           style="fill:#254ce3;stroke-width:0.07861552" />
        <path
           inkscape:connector-curvature="0"
           id="path1472"
           d="m 91.823435,20.31198 c -0.02905,-0.02905 -0.05283,-1.232061 -0.05283,-2.673346 v -2.620517 h 4.01456 c 2.616997,0 4.067496,-0.02833 4.166622,-0.08138 0.120783,-0.06464 0.152063,-0.16653 0.152063,-0.495278 0,-0.227643 -0.0424,-0.456349 -0.0943,-0.508235 -0.07094,-0.07095 -1.104109,-0.09434 -4.166621,-0.09434 H 91.770607 V 8.0213362 2.203788 h 7.114705 7.114708 v 2.5060705 c 0,2.0000368 -0.0213,2.523743 -0.10546,2.5935913 -0.0737,0.06118 -1.32181,0.093653 -4.14697,0.1078955 l -4.041511,0.020375 V 7.9427211 8.453722 l 4.127311,0.039308 4.12732,0.039308 v 5.896164 5.896164 l -7.042224,0.02007 c -3.873223,0.01104 -7.065995,-0.0037 -7.095051,-0.03276 z m 17.138185,0 c -0.0291,-0.02905 -0.0528,-1.232061 -0.0528,-2.673346 v -2.620517 h 4.01456 c 2.617,0 4.0675,-0.02833 4.16662,-0.08138 0.12121,-0.06487 0.15207,-0.1666 0.15207,-0.501375 0,-0.255353 -0.0413,-0.454302 -0.10546,-0.507514 -0.0737,-0.06118 -1.32181,-0.09365 -4.14697,-0.107895 l -4.04151,-0.02038 -0.0202,-5.7978946 -0.0202,-5.7978944 h 7.11521 7.11521 v 2.5550043 c 0,1.4052524 -0.009,2.5630585 -0.0196,2.5729025 -0.0108,0.00984 -1.87695,0.036377 -4.14697,0.058962 l -4.12732,0.041063 -0.0234,0.4913469 c -0.0129,0.2702409 -0.0129,0.4994012 0,0.5092452 0.0129,0.00984 1.88069,0.036377 4.15072,0.058962 l 4.12731,0.041063 v 5.8961641 5.896164 l -7.04222,0.02007 c -3.87322,0.01104 -7.066,-0.0037 -7.09505,-0.03276 z M 74.669397,20.029856 c -0.02019,-0.05405 -0.04561,-4.087026 -0.05649,-8.962175 l -0.01979,-8.8639051 7.134359,6.1e-6 7.134358,6e-6 v 2.893051 c 0,2.1453301 -0.02438,2.9174332 -0.09434,2.9873897 -0.07095,0.070946 -1.104111,0.094339 -4.166622,0.094339 h -4.072284 v 2.9789783 c 0,2.643917 0.01399,2.984345 0.124353,3.026697 0.06839,0.02625 1.921901,0.04772 4.118904,0.04772 3.569986,0 3.999622,0.01322 4.042269,0.124353 0.02625,0.06839 0.04772,1.352579 0.04772,2.853744 0,2.018038 -0.02459,2.753977 -0.09434,2.823728 -0.1404,0.1404 -14.045632,0.136524 -14.098097,-0.0039 z"
           style="fill:#030303;stroke-width:0.07861552" />
      </g>
    </g>
  </g>
</svg>
