<?xml version="1.0" encoding="UTF-8" standalone="no"?>
<!-- Created with Inkscape (http://www.inkscape.org/) -->

<svg
   xmlns:dc="http://purl.org/dc/elements/1.1/"
   xmlns:cc="http://creativecommons.org/ns#"
   xmlns:rdf="http://www.w3.org/1999/02/22-rdf-syntax-ns#"
   xmlns:svg="http://www.w3.org/2000/svg"
   xmlns="http://www.w3.org/2000/svg"
   xmlns:sodipodi="http://sodipodi.sourceforge.net/DTD/sodipodi-0.dtd"
   xmlns:inkscape="http://www.inkscape.org/namespaces/inkscape"
   width="95.08934mm"
   height="135.44687mm"
   viewBox="0 0 95.08934 135.44687"
   version="1.1"
   id="svg8"
   inkscape:version="0.92.4 (5da689c313, 2019-01-14)"
   sodipodi:docname="html.svg">
  <defs
     id="defs2" />
  <sodipodi:namedview
     id="base"
     pagecolor="#ffffff"
     bordercolor="#666666"
     borderopacity="1.0"
     inkscape:pageopacity="0.0"
     inkscape:pageshadow="2"
     inkscape:zoom="1"
     inkscape:cx="227.12781"
     inkscape:cy="232.51721"
     inkscape:document-units="mm"
     inkscape:current-layer="layer1"
     showgrid="false"
     inkscape:window-width="2880"
     inkscape:window-height="1795"
     inkscape:window-x="-13"
     inkscape:window-y="-13"
     inkscape:window-maximized="1" />
  <metadata
     id="metadata5">
    <rdf:RDF>
      <cc:Work
         rdf:about="">
        <dc:format>image/svg+xml</dc:format>
        <dc:type
           rdf:resource="http://purl.org/dc/dcmitype/StillImage" />
        <dc:title></dc:title>
      </cc:Work>
    </rdf:RDF>
  </metadata>
  <g
     inkscape:groupmode="layer"
     id="layer2"
     inkscape:label="Layer 2"
     transform="translate(-59.425867,-151.11398)" />
  <g
     inkscape:label="Layer 1"
     inkscape:groupmode="layer"
     id="layer1"
     transform="translate(-59.425867,-151.11398)">
    <g
       id="g906">
      <rect
         y="185.90723"
         x="71.382866"
         height="86.783333"
         width="35.718742"
         id="rect857"
         style="fill:#ebebeb;fill-opacity:1;stroke:none;stroke-width:0.51792824;stroke-miterlimit:4;stroke-dasharray:none;stroke-dashoffset:0;stroke-opacity:1" />
      <rect
         y="185.90723"
         x="107.10161"
         height="86.783333"
         width="35.718742"
         id="rect857-6"
         style="fill:#ffffff;fill-opacity:1;stroke:none;stroke-width:0.51792824;stroke-miterlimit:4;stroke-dasharray:none;stroke-dashoffset:0;stroke-opacity:1" />
      <g
         id="g889">
        <g
           id="g826"
           transform="translate(-3.7417734,148.17423)">
          <g
             id="g855"
             transform="translate(1.8254914,-1.4458066)">
            <path
               inkscape:connector-curvature="0"
               id="path834"
               d="m 108.35643,139.68022 c -0.21828,-0.0719 -0.635,-0.23711 -0.92604,-0.36711 -0.29104,-0.13 -8.804007,-2.51558 -18.917705,-5.30129 -10.113697,-2.78572 -18.466103,-5.14119 -18.560903,-5.2344 -0.256575,-0.25226 -8.796843,-96.746843 -8.606498,-97.242879 0.149198,-0.388802 4.253156,-0.425537 47.540316,-0.425537 43.23916,0 47.39125,0.03708 47.53992,0.4245 0.26482,0.690113 -8.37167,96.762396 -8.73098,97.123416 -0.17164,0.17245 -8.52738,2.58572 -18.56831,5.36282 -10.04094,2.77709 -18.70515,5.2256 -19.2538,5.44113 -0.54864,0.21554 -1.02489,0.38248 -1.05833,0.37099 -0.0334,-0.0115 -0.23938,-0.0797 -0.45767,-0.15164 z m 12.82423,-23.76267 c 6.53193,-1.81374 12.02919,-3.45085 12.21614,-3.63802 0.23468,-0.23497 0.84706,-5.97895 1.97826,-18.555618 1.3918,-15.474013 1.58242,-18.254456 1.26664,-18.475491 -0.24071,-0.168489 -7.88924,-0.204806 -21.70107,-0.103045 -17.034435,0.125508 -21.382769,0.08974 -21.59469,-0.177633 -0.320529,-0.4044 -1.266825,-10.839008 -1.03723,-11.437323 0.147092,-0.383313 2.213464,-0.407223 22.59075,-0.261401 15.01879,0.107474 22.55636,0.07168 22.8148,-0.108354 0.27908,-0.194414 0.51227,-1.53714 0.84218,-4.849321 0.64249,-6.450506 0.63373,-7.27784 -0.0795,-7.504196 -0.31411,-0.0997 -13.88723,-0.09252 -30.1625,0.01595 l -29.591378,0.197213 0.01233,1.222988 c 0.02135,2.118791 3.052186,34.564546 3.260185,34.901093 0.149701,0.242224 2.64219,0.320945 10.170705,0.321218 5.484823,1.98e-4 14.705138,0.07908 20.489588,0.1753 l 10.51719,0.174937 0.006,0.816888 c 0.003,0.449288 -0.25765,3.771587 -0.57938,7.38289 -0.46983,5.273655 -0.66622,6.607605 -0.99778,6.777345 -0.22704,0.11624 -3.22579,0.9571 -6.6639,1.86858 l -6.25109,1.65724 -6.44891,-1.71353 -6.448901,-1.71353 -0.193546,-0.90022 c -0.106452,-0.49512 -0.344577,-2.626628 -0.529166,-4.73668 l -0.335614,-3.836458 -6.025663,-0.07113 c -4.802078,-0.05669 -6.052917,-1.01e-4 -6.159888,0.278661 -0.210537,0.548656 1.465752,18.281687 1.756156,18.577887 0.280553,0.28616 23.571872,6.93383 24.463282,6.98217 0.29707,0.0161 5.88444,-1.45468 12.41638,-3.26841 z M 69.887869,22.223823 C 69.799538,21.99364 69.72727,17.885984 69.72727,13.095699 V 4.3860888 h 3.042708 3.042708 V 7.111297 c 0,1.7668287 0.111657,2.8368639 0.3175,3.042708 0.428807,0.428809 4.757025,0.428809 5.185833,0 0.205843,-0.2058441 0.3175,-1.2758793 0.3175,-3.042708 V 4.3860888 h 3.042708 3.042708 l -0.004,8.7973952 c -0.0021,4.838568 -0.101264,8.95061 -0.220078,9.137872 -0.158861,0.250382 -0.945427,0.320394 -2.972511,0.264583 l -2.756487,-0.07589 -0.06609,-2.38125 c -0.106704,-3.84435 0.09301,-3.603756 -2.917894,-3.51522 l -2.572263,0.07564 -0.06609,2.38125 c -0.106706,3.844509 0.138912,3.571875 -3.217931,3.571875 -2.379435,0 -2.904847,-0.07239 -3.037668,-0.418515 z m 25.897561,0.09679 C 95.71619,22.133762 95.629074,19.42104 95.591842,16.292342 l -0.0677,-5.688541 -2.513541,-0.132292 -2.513542,-0.132291 -0.07481,-2.9765628 -0.07481,-2.9765624 h 8.351705 8.351706 l -0.0748,2.9765624 -0.0748,2.9765628 -2.51355,0.132291 -2.51354,0.132292 -0.13229,5.953125 -0.13229,5.953124 -2.84912,0.07515 c -2.1331,0.05626 -2.880759,-0.01023 -2.975009,-0.264584 z m 14.05783,-0.08816 c -0.0901,-0.23493 -0.16391,-4.34647 -0.16391,-9.136755 V 4.3860888 h 3.27469 3.2747 l 1.52543,2.5796874 c 1.70145,2.8773311 2.21305,3.5560408 2.53196,3.3589458 0.11952,-0.07387 1.00418,-1.4402791 1.9659,-3.0364693 l 1.74859,-2.9021639 h 3.16159 3.16159 l -0.0696,9.0619792 -0.0696,9.061978 h -2.91042 -2.91041 l -0.0731,-4.054611 c -0.046,-2.550186 -0.17118,-4.021932 -0.33737,-3.966536 -0.14532,0.04844 -1.00538,1.209694 -1.91123,2.580561 -0.90585,1.370868 -1.77557,2.533897 -1.9327,2.58451 -0.15713,0.05061 -1.08052,-1.101767 -2.05198,-2.560845 -0.97146,-1.459079 -1.8816,-2.65287 -2.02252,-2.65287 -0.15086,0 -0.28627,1.659339 -0.32927,4.034896 l -0.073,4.034895 -2.81265,0.07478 c -2.38941,0.06352 -2.83732,0.0105 -2.97657,-0.352369 z m 23.82921,0.237725 c -0.0993,-0.09934 -0.18062,-4.2089 -0.18062,-9.132355 V 4.3860888 h 3.04271 3.04271 v 6.0786982 6.078697 l 4.16718,0.07287 4.16719,0.07286 v 2.910417 2.910416 l -7.02927,0.07038 c -3.86611,0.03871 -7.11056,-0.0109 -7.2099,-0.110243 z"
               style="fill:#8f8f8f;stroke-width:0.26458332" />
            <path
               inkscape:connector-curvature="0"
               id="path832"
               d="m 108.34645,139.63336 c -0.21279,-0.0685 -0.44642,-0.20897 -0.51918,-0.31216 -0.0728,-0.1032 -8.570152,-2.52047 -18.883089,-5.37172 -10.312937,-2.85125 -18.80273,-5.23602 -18.866206,-5.2995 -0.17036,-0.17036 -8.770641,-96.845071 -8.636154,-97.077955 0.06303,-0.109141 21.412729,-0.198438 47.443779,-0.198438 26.03105,0 47.38068,0.0893 47.44362,0.198438 0.11661,0.202202 -8.45959,96.901555 -8.60722,97.049185 -0.0445,0.0445 -8.6102,2.44097 -19.03488,5.32549 -10.42468,2.88453 -18.90793,5.32027 -18.85166,5.41277 0.13588,0.22338 -0.998,0.43194 -1.48901,0.27389 z m 12.67734,-23.49622 c 6.63915,-1.83849 12.24605,-3.50589 12.45978,-3.70534 0.3003,-0.28024 0.75997,-4.49184 2.02304,-18.535404 0.89894,-9.995024 1.57454,-18.328872 1.50132,-18.519665 -0.1083,-0.282232 -4.17358,-0.346896 -21.80894,-0.346896 -17.101859,0 -21.700526,-0.06979 -21.79286,-0.330729 -0.19127,-0.54053 -1.092668,-11.054767 -0.959183,-11.188255 0.06748,-0.06747 10.335183,-0.122682 22.817133,-0.122682 12.48195,0 22.75756,-0.1021 22.83468,-0.226888 0.22699,-0.367279 1.2646,-11.694826 1.10852,-12.101586 -0.12126,-0.315973 -4.65511,-0.371525 -30.32168,-0.371525 -26.491663,0 -30.197589,0.04817 -30.330384,0.394226 -0.274886,0.716341 3.04595,36.198774 3.409482,36.429613 0.181655,0.115347 9.461298,0.211547 20.621432,0.213775 11.25993,0.0021 20.35466,0.106796 20.43383,0.234894 0.20209,0.326991 -1.10132,14.360822 -1.3563,14.603242 -0.32323,0.3073 -12.19825,3.42364 -12.99858,3.41118 -0.38804,-0.006 -3.44396,-0.75035 -6.79094,-1.65403 L 95.788727,102.67801 95.3881,98.180484 c -0.220342,-2.473639 -0.49526,-4.646353 -0.610926,-4.828254 -0.30971,-0.487063 -11.901323,-0.474363 -12.306199,0.01349 -0.395356,0.476374 1.204868,18.4187 1.689124,18.93911 0.258773,0.2781 23.423691,7.02073 24.560571,7.14887 0.12756,0.0144 5.66397,-1.47807 12.30312,-3.31655 z M 70.322582,22.467109 c -0.25546,-0.10308 -0.330729,-2.175772 -0.330729,-9.107236 V 4.3860888 h 2.901751 2.901752 l 0.07481,2.9765624 0.07481,2.9765628 h 2.778124 2.778125 l 0.07481,-2.9765628 0.07481,-2.9765624 h 2.901752 2.901751 v 8.9675252 c 0,7.933135 -0.04828,8.986051 -0.418515,9.128125 -0.603454,0.231566 -4.681598,0.190156 -5.061707,-0.0514 -0.209322,-0.13302 -0.347276,-1.166269 -0.396875,-2.972511 l -0.07603,-2.768617 h -2.778125 -2.778124 l -0.07603,2.768617 c -0.0496,1.806242 -0.187553,2.839491 -0.396875,2.972511 -0.349996,0.222419 -4.613952,0.252864 -5.149493,0.03677 z m 25.651353,-0.142271 c -0.227526,-0.227526 -0.3175,-1.952037 -0.3175,-6.085416 v -5.767917 h -2.227318 c -1.225026,0 -2.415651,-0.07227 -2.645833,-0.160599 -0.346189,-0.132845 -0.418515,-0.6586773 -0.418515,-3.0427082 v -2.882109 h 8.334374 8.334377 v 2.882109 c 0,2.3840309 -0.0723,2.9098632 -0.41852,3.0427082 -0.23018,0.08833 -1.4208,0.160599 -2.64583,0.160599 h -2.22732 v 5.767917 c 0,4.133379 -0.09,5.85789 -0.3175,6.085416 -0.20042,0.200424 -1.20532,0.3175 -2.725207,0.3175 -1.519883,0 -2.524784,-0.117076 -2.725208,-0.3175 z m 14.300725,0.142271 c -0.25546,-0.10308 -0.33073,-2.175772 -0.33073,-9.107236 V 4.3860888 l 3.10886,0.015167 3.10885,0.015167 1.75763,2.9613954 c 0.9667,1.6287675 1.93005,2.9962488 2.14079,3.0388468 0.34319,0.06937 3.21963,-4.2393117 3.71685,-5.5675553 0.15188,-0.4057116 0.56734,-0.4630208 3.35664,-0.4630208 h 3.1833 v 8.9675251 c 0,7.933135 -0.0483,8.986051 -0.41852,9.128125 -0.60555,0.232372 -4.68221,0.189757 -5.06419,-0.05294 -0.2253,-0.143142 -0.34564,-1.39891 -0.39688,-4.141411 -0.0486,-2.602854 -0.17361,-3.969225 -0.36899,-4.034138 -0.1625,-0.05399 -1.09572,1.157173 -2.07382,2.69147 -0.9781,1.534297 -1.8908,2.720143 -2.02822,2.635214 -0.13742,-0.08493 -1.01638,-1.335633 -1.95324,-2.779341 -0.93687,-1.443707 -1.82598,-2.624922 -1.97581,-2.624922 -0.17456,0 -0.27241,1.406624 -0.27241,3.915833 0,2.69287 -0.0992,4.014992 -0.3175,4.233333 -0.31348,0.313473 -4.46532,0.427668 -5.17261,0.142272 z m 23.54792,0 c -0.25546,-0.10308 -0.33073,-2.175772 -0.33073,-9.107236 V 4.3860888 l 2.97656,-2.674e-4 2.97656,-2.674e-4 -0.0799,5.909588 c -0.0643,4.75684 -0.009,5.96831 0.28284,6.210628 0.22566,0.18728 1.85559,0.328812 4.31323,0.374533 l 3.95049,0.07349 0.0763,2.623966 c 0.0558,1.920961 -0.0151,2.681905 -0.26458,2.840219 -0.36206,0.229712 -13.33954,0.275577 -13.90074,0.04913 z"
               style="fill:#f16529;fill-opacity:1;stroke-width:0.26458332" />
            <path
               inkscape:connector-curvature="0"
               id="path830"
               d="m 107.93205,139.3681 c 0.0748,-0.12104 -8.341258,-2.56719 -18.70236,-5.43589 -10.361104,-2.8687 -18.918242,-5.29975 -19.015868,-5.40233 -0.157879,-0.16589 -8.703199,-95.088317 -8.692828,-96.56098 l 0.0042,-0.595313 h 47.360416 47.36042 v 0.692164 c 0,0.963255 -8.46217,95.948939 -8.57826,96.288799 -0.0518,0.15166 -8.6707,2.65064 -19.1531,5.55329 -10.48241,2.90265 -18.91931,5.36635 -18.74867,5.47488 0.17063,0.10854 -0.20281,0.19917 -0.82986,0.20139 -0.62705,0.002 -1.07889,-0.095 -1.00408,-0.21601 z m 17.09313,-12.37528 c 8.22193,-2.28395 15.09788,-4.28798 15.27989,-4.4534 0.40092,-0.36437 7.86634,-82.942109 7.52886,-83.279585 -0.11925,-0.119248 -8.90164,-0.186267 -19.51643,-0.148929 l -19.29961,0.06789 -0.0714,5.622396 c -0.0393,3.092318 -0.0988,5.649701 -0.13229,5.683072 -0.0335,0.03337 -6.84744,0.122669 -15.14213,0.198438 l -15.081249,0.137761 -0.07872,0.93528 c -0.09019,1.071507 2.74498,33.510557 3.051635,34.915759 l 0.202089,0.926042 13.493749,0.132292 13.493746,0.132291 0.0696,9.061979 c 0.0383,4.984084 -0.0135,9.061974 -0.11523,9.061974 -0.5037,0 -12.421876,-3.25455 -12.624493,-3.44743 -0.129083,-0.12287 -0.398817,-2.04661 -0.599414,-4.274964 -0.200599,-2.228358 -0.424677,-4.31945 -0.497954,-4.646871 l -0.133231,-0.595313 h -6.220973 c -5.12713,0 -6.246296,0.066 -6.365006,0.375351 -0.205732,0.536131 1.471829,18.758407 1.753356,19.045587 0.190074,0.19388 13.647737,4.05089 22.815095,6.53886 l 2.05052,0.5565 v 5.74775 c 0,3.16127 0.0807,5.82844 0.1793,5.92705 0.0986,0.0986 0.3665,0.12385 0.59531,0.0561 0.22881,-0.0678 7.14305,-1.99191 15.36497,-4.27586 z M 93.422685,74.699106 C 93.307737,74.320744 92.477694,64.886042 92.479948,63.983482 l 0.0015,-0.595313 H 100.265 c 4.28097,0 7.9719,0.07227 8.20209,0.1606 0.36305,0.139316 0.41851,0.889362 0.41851,5.660233 0,4.770871 -0.0555,5.520918 -0.41851,5.660234 -0.23019,0.08833 -3.68673,0.160599 -7.68122,0.160599 -5.580192,0 -7.285988,-0.07662 -7.363185,-0.330729 z M 70.322582,22.467109 c -0.25546,-0.10308 -0.330729,-2.175772 -0.330729,-9.107236 V 4.3860888 h 2.901751 2.901752 l 0.07481,2.9765624 0.07481,2.9765628 h 2.778124 2.778125 l 0.07481,-2.9765628 0.07481,-2.9765624 h 2.901752 2.901751 v 8.9675252 c 0,7.933135 -0.04828,8.986051 -0.418515,9.128125 -0.603454,0.231566 -4.681598,0.190156 -5.061707,-0.0514 -0.209322,-0.13302 -0.347276,-1.166269 -0.396875,-2.972511 l -0.07603,-2.768617 h -2.778125 -2.778124 l -0.07603,2.768617 c -0.0496,1.806242 -0.187553,2.839491 -0.396875,2.972511 -0.349996,0.222419 -4.613952,0.252864 -5.149493,0.03677 z m 25.651353,-0.142271 c -0.227526,-0.227526 -0.3175,-1.952037 -0.3175,-6.085416 v -5.767917 h -2.227318 c -1.225026,0 -2.415651,-0.07227 -2.645833,-0.160599 -0.346189,-0.132845 -0.418515,-0.6586773 -0.418515,-3.0427082 v -2.882109 h 8.334374 8.334377 v 2.882109 c 0,2.3840309 -0.0723,2.9098632 -0.41852,3.0427082 -0.23018,0.08833 -1.4208,0.160599 -2.64583,0.160599 h -2.22732 v 5.767917 c 0,4.133379 -0.09,5.85789 -0.3175,6.085416 -0.20042,0.200424 -1.20532,0.3175 -2.725207,0.3175 -1.519883,0 -2.524784,-0.117076 -2.725208,-0.3175 z m 14.300725,0.142271 c -0.25546,-0.10308 -0.33073,-2.175772 -0.33073,-9.107236 V 4.3860888 l 3.10886,0.015167 3.10885,0.015167 1.75763,2.9613954 c 0.9667,1.6287675 1.93005,2.9962488 2.14079,3.0388468 0.34319,0.06937 3.21963,-4.2393117 3.71685,-5.5675553 0.15188,-0.4057116 0.56734,-0.4630208 3.35664,-0.4630208 h 3.1833 v 8.9675251 c 0,7.933135 -0.0483,8.986051 -0.41852,9.128125 -0.60555,0.232372 -4.68221,0.189757 -5.06419,-0.05294 -0.2253,-0.143142 -0.34564,-1.39891 -0.39688,-4.141411 -0.0486,-2.602854 -0.17361,-3.969225 -0.36899,-4.034138 -0.1625,-0.05399 -1.09572,1.157173 -2.07382,2.69147 -0.9781,1.534297 -1.8908,2.720143 -2.02822,2.635214 -0.13742,-0.08493 -1.01638,-1.335633 -1.95324,-2.779341 -0.93687,-1.443707 -1.82598,-2.624922 -1.97581,-2.624922 -0.17456,0 -0.27241,1.406624 -0.27241,3.915833 0,2.69287 -0.0992,4.014992 -0.3175,4.233333 -0.31348,0.313473 -4.46532,0.427668 -5.17261,0.142272 z m 23.54792,0 c -0.25546,-0.10308 -0.33073,-2.175772 -0.33073,-9.107236 V 4.3860888 l 2.97656,-2.674e-4 2.97656,-2.674e-4 -0.0799,5.909588 c -0.0643,4.75684 -0.009,5.96831 0.28284,6.210628 0.22566,0.18728 1.85559,0.328812 4.31323,0.374533 l 3.95049,0.07349 0.0763,2.623966 c 0.0558,1.920961 -0.0151,2.681905 -0.26458,2.840219 -0.36206,0.229712 -13.33954,0.275577 -13.90074,0.04913 z"
               style="fill:#e44d26;fill-opacity:1;stroke-width:0.26458332" />
            <path
               inkscape:connector-curvature="0"
               id="path828"
               d="m 70.322582,22.467109 c -0.25546,-0.10308 -0.330729,-2.175772 -0.330729,-9.107236 V 4.3860888 h 2.901751 2.901752 l 0.07481,2.9765624 0.07481,2.9765628 h 2.778124 2.778125 l 0.07481,-2.9765628 0.07481,-2.9765624 h 2.901752 2.901751 v 8.9675252 c 0,7.933135 -0.04828,8.986051 -0.418515,9.128125 -0.603454,0.231566 -4.681598,0.190156 -5.061707,-0.0514 -0.209322,-0.13302 -0.347276,-1.166269 -0.396875,-2.972511 l -0.07603,-2.768617 h -2.778125 -2.778124 l -0.07603,2.768617 c -0.0496,1.806242 -0.187553,2.839491 -0.396875,2.972511 -0.349996,0.222419 -4.613952,0.252864 -5.149493,0.03677 z m 25.651353,-0.142271 c -0.227526,-0.227526 -0.3175,-1.952037 -0.3175,-6.085416 v -5.767917 h -2.227318 c -1.225026,0 -2.415651,-0.07227 -2.645833,-0.160599 -0.346189,-0.132845 -0.418515,-0.6586773 -0.418515,-3.0427082 v -2.882109 h 8.334374 8.334377 v 2.882109 c 0,2.3840309 -0.0723,2.9098632 -0.41852,3.0427082 -0.23018,0.08833 -1.4208,0.160599 -2.64583,0.160599 h -2.22732 v 5.767917 c 0,4.133379 -0.09,5.85789 -0.3175,6.085416 -0.20042,0.200424 -1.20532,0.3175 -2.725207,0.3175 -1.519883,0 -2.524784,-0.117076 -2.725208,-0.3175 z m 14.300725,0.142271 c -0.25546,-0.10308 -0.33073,-2.175772 -0.33073,-9.107236 V 4.3860888 l 3.10886,0.015167 3.10885,0.015167 1.75763,2.9613954 c 0.9667,1.6287675 1.93005,2.9962488 2.14079,3.0388468 0.34319,0.06937 3.21963,-4.2393117 3.71685,-5.5675553 0.15188,-0.4057116 0.56734,-0.4630208 3.35664,-0.4630208 h 3.1833 v 8.9675251 c 0,7.933135 -0.0483,8.986051 -0.41852,9.128125 -0.60555,0.232372 -4.68221,0.189757 -5.06419,-0.05294 -0.2253,-0.143142 -0.34564,-1.39891 -0.39688,-4.141411 -0.0486,-2.602854 -0.17361,-3.969225 -0.36899,-4.034138 -0.1625,-0.05399 -1.09572,1.157173 -2.07382,2.69147 -0.9781,1.534297 -1.8908,2.720143 -2.02822,2.635214 -0.13742,-0.08493 -1.01638,-1.335633 -1.95324,-2.779341 -0.93687,-1.443707 -1.82598,-2.624922 -1.97581,-2.624922 -0.17456,0 -0.27241,1.406624 -0.27241,3.915833 0,2.69287 -0.0992,4.014992 -0.3175,4.233333 -0.31348,0.313473 -4.46532,0.427668 -5.17261,0.142272 z m 23.54792,0 c -0.25546,-0.10308 -0.33073,-2.175772 -0.33073,-9.107236 V 4.3860888 l 2.97656,-2.674e-4 2.97656,-2.674e-4 -0.0799,5.909588 c -0.0643,4.75684 -0.009,5.96831 0.28284,6.210628 0.22566,0.18728 1.85559,0.328812 4.31323,0.374533 l 3.95049,0.07349 0.0763,2.623966 c 0.0558,1.920961 -0.0151,2.681905 -0.26458,2.840219 -0.36206,0.229712 -13.33954,0.275577 -13.90074,0.04913 z"
               style="fill:#0a0a0a;stroke-width:0.26458332" />
          </g>
        </g>
      </g>
    </g>
  </g>
</svg>
