<?xml version="1.0" encoding="UTF-8" standalone="no"?>
<!-- Created with Inkscape (http://www.inkscape.org/) -->

<svg
   xmlns:dc="http://purl.org/dc/elements/1.1/"
   xmlns:cc="http://creativecommons.org/ns#"
   xmlns:rdf="http://www.w3.org/1999/02/22-rdf-syntax-ns#"
   xmlns:svg="http://www.w3.org/2000/svg"
   xmlns="http://www.w3.org/2000/svg"
   xmlns:sodipodi="http://sodipodi.sourceforge.net/DTD/sodipodi-0.dtd"
   xmlns:inkscape="http://www.inkscape.org/namespaces/inkscape"
   width="103.14984mm"
   height="103.14983mm"
   viewBox="0 0 103.14984 103.14983"
   version="1.1"
   id="svg1504"
   inkscape:version="0.92.4 (5da689c313, 2019-01-14)"
   sodipodi:docname="js.svg">
  <defs
     id="defs1498" />
  <sodipodi:namedview
     id="base"
     pagecolor="#ffffff"
     bordercolor="#666666"
     borderopacity="1.0"
     inkscape:pageopacity="0.0"
     inkscape:pageshadow="2"
     inkscape:zoom="1.979899"
     inkscape:cx="182.60305"
     inkscape:cy="190.71752"
     inkscape:document-units="mm"
     inkscape:current-layer="g2060"
     showgrid="false"
     inkscape:window-width="2880"
     inkscape:window-height="1795"
     inkscape:window-x="-13"
     inkscape:window-y="-13"
     inkscape:window-maximized="1" />
  <metadata
     id="metadata1501">
    <rdf:RDF>
      <cc:Work
         rdf:about="">
        <dc:format>image/svg+xml</dc:format>
        <dc:type
           rdf:resource="http://purl.org/dc/dcmitype/StillImage" />
        <dc:title></dc:title>
      </cc:Work>
    </rdf:RDF>
  </metadata>
  <g
     inkscape:label="Layer 1"
     inkscape:groupmode="layer"
     id="layer1"
     transform="translate(-56.648102,-155.079)">
    <g
       id="g2060"
       transform="translate(0,126.15122)">
      <g
         id="g2086">
        <path
           inkscape:connector-curvature="0"
           id="path2076"
           d="m 56.648102,80.502704 v -51.57492 h 51.574918 51.57492 v 51.57492 51.574916 H 108.22302 56.648102 Z"
           style="fill:#f5dd1c;stroke-width:0.0859582" />
        <path
           inkscape:connector-curvature="0"
           id="path2074"
           d="m 133.88154,124.08606 c -6.58489,-0.49237 -11.69967,-3.30424 -14.93682,-8.21156 -0.75334,-1.14201 -1.02482,-1.709 -0.8968,-1.873 0.16111,-0.20639 7.66214,-4.53088 7.85902,-4.53088 0.12174,0 0.28975,0.1765 0.55061,0.57843 1.96446,3.02677 4.38045,4.68115 7.4434,5.09696 1.09516,0.14867 3.02442,0.0656 3.97765,-0.17133 1.06507,-0.2647 2.03946,-0.76577 2.71137,-1.39432 0.9275,-0.86762 1.32867,-1.76795 1.32867,-2.98189 0,-1.30554 -0.44246,-2.34187 -1.37574,-3.22228 -1.01274,-0.95537 -2.44823,-1.7179 -6.5754,-3.49286 -2.92487,-1.25788 -4.30566,-1.9239 -5.64331,-2.722 -4.5411,-2.709432 -6.83262,-5.979896 -7.3854,-10.540458 -0.15106,-1.246256 -0.0573,-3.925682 0.17211,-4.917697 0.55225,-2.388238 1.63424,-4.398898 3.23373,-6.009229 2.55409,-2.571394 5.97429,-3.931138 10.22458,-4.064907 5.94209,-0.187015 10.14138,1.674383 13.24742,5.8721 0.7391,0.998873 1.27467,1.931414 1.18568,2.064514 -0.12229,0.182872 -7.42948,4.845642 -7.58745,4.841597 -0.0822,-0.0021 -0.37025,-0.359425 -0.69135,-0.857603 -0.97559,-1.513606 -2.09119,-2.46175 -3.40364,-2.892752 -0.90931,-0.298614 -2.632,-0.380237 -3.48532,-0.165138 -1.28235,0.32324 -2.33255,1.134418 -2.80514,2.166699 -0.49069,1.071807 -0.46788,2.583547 0.0555,3.680257 0.68841,1.442424 2.05428,2.306494 7.00856,4.433718 5.38628,2.312719 7.83383,3.76118 10.02099,5.930449 1.64088,1.62744 2.6252,3.24589 3.21447,5.28527 0.39155,1.3551 0.49559,2.13609 0.53832,4.0412 0.0349,1.55325 0.0159,1.94904 -0.13593,2.83662 -0.34272,2.00374 -0.95074,3.57967 -1.97034,5.10687 -1.04262,1.56165 -3.05258,3.28573 -4.91104,4.21251 -1.81647,0.90583 -4.12255,1.55703 -6.41264,1.81083 -1.12955,0.12518 -3.46701,0.1713 -4.55579,0.0899 z m -37.99352,-0.0999 c -5.382513,-0.67601 -9.452486,-3.49249 -11.953546,-8.27202 -0.200525,-0.38321 -0.232927,-0.51366 -0.157365,-0.63361 0.140038,-0.2223 7.815307,-4.84679 7.953362,-4.79205 0.06463,0.0256 0.349601,0.44197 0.633263,0.92521 1.743832,2.97076 3.182886,3.966 5.71622,3.95328 2.995926,-0.015 4.377126,-1.24341 4.810316,-4.27807 0.0549,-0.38426 0.0865,-6.74348 0.0876,-17.59692 0.002,-16.713785 0.004,-16.996682 0.16797,-17.084192 0.26001,-0.139156 9.47,-0.121267 9.6615,0.01877 0.1385,0.101269 0.14573,1.172472 0.12027,17.814837 -0.0254,16.612725 -0.0367,17.762865 -0.18238,18.609645 -0.5554,3.22796 -1.61313,5.53585 -3.39835,7.41489 -2.04093,2.14821 -4.76743,3.42693 -8.28428,3.88533 -1.112591,0.14502 -4.135481,0.16541 -5.17458,0.0349 z"
           style="fill:#cab617;stroke-width:0.0859582" />
        <path
           inkscape:connector-curvature="0"
           id="path2072"
           d="m 96.962498,124.03011 c -4.944955,-0.35853 -8.84442,-2.41317 -11.571427,-6.09702 -0.849365,-1.14739 -1.644519,-2.58353 -1.556881,-2.81192 0.03982,-0.10376 7.400365,-4.62345 7.744741,-4.7556 0.145333,-0.0558 0.196846,0.0104 0.863459,1.10977 1.037146,1.71038 1.873481,2.61208 2.944968,3.17513 0.809906,0.42559 1.504994,0.57685 2.649617,0.57659 2.498625,-8.6e-4 3.870305,-0.83621 4.571195,-2.78476 0.42214,-1.17359 0.40156,-0.31513 0.45265,-18.87395 l 0.0477,-17.320577 h 4.85664 4.85664 l 0.0256,17.234619 c 0.018,12.135528 -0.003,17.514318 -0.0694,18.179998 -0.27112,2.69696 -1.04675,5.03055 -2.29706,6.91099 -0.60116,0.90415 -2.06617,2.38779 -2.96049,2.99817 -1.73175,1.18193 -3.82461,1.94788 -6.2769,2.29724 -0.9016,0.12845 -3.423684,0.22348 -4.281022,0.16132 z m 36.532232,-0.0355 c -6.37062,-0.60372 -11.32198,-3.36506 -14.42334,-8.0438 -0.72403,-1.09228 -1.10395,-1.81819 -1.00357,-1.91753 0.0794,-0.0786 7.10668,-4.17617 7.59595,-4.42918 0.12861,-0.0665 0.2726,-0.0947 0.32,-0.0627 0.0474,0.032 0.32447,0.40633 0.61573,0.83182 1.26707,1.85102 2.57466,3.05855 4.18755,3.86712 1.62159,0.81292 3.26551,1.14496 5.20047,1.05038 4.07807,-0.19933 6.46088,-2.42138 5.93567,-5.5352 -0.27083,-1.60567 -1.3032,-2.73618 -3.62569,-3.97037 -0.83395,-0.44317 -1.88223,-0.91721 -5.09224,-2.30275 -5.1773,-2.23469 -7.87836,-4.061469 -9.81309,-6.636796 -0.63393,-0.843837 -1.47895,-2.47872 -1.80208,-3.486552 -0.90849,-2.833527 -0.92694,-6.326081 -0.0475,-8.988189 0.29585,-0.895531 1.06087,-2.388655 1.64082,-3.202443 0.67501,-0.947187 2.14494,-2.374032 3.10119,-3.010299 1.94392,-1.293442 4.29482,-2.111621 6.87342,-2.392142 1.33401,-0.145125 4.261,-0.05527 5.51626,0.169344 4.05992,0.726468 6.89148,2.524554 9.3112,5.912739 0.68168,0.954518 1.04834,1.632902 0.93779,1.735096 -0.22608,0.209005 -7.37533,4.741782 -7.4789,4.741782 -0.0655,0 -0.29965,-0.280438 -0.52028,-0.623197 -1.61835,-2.514139 -3.39112,-3.516251 -6.00662,-3.395429 -1.41467,0.06535 -2.36366,0.437108 -3.18022,1.245825 -1.53844,1.523663 -1.51122,4.314044 0.0574,5.882661 0.95242,0.952416 2.25012,1.660525 5.95499,3.249425 1.22921,0.527164 3.0859,1.379454 4.126,1.893975 2.96626,1.467377 4.55489,2.536551 6.19254,4.1677 2.35171,2.34237 3.43325,4.76536 3.74099,8.38092 0.14861,1.746 0.0149,3.37928 -0.41152,5.02856 -1.39218,5.38399 -5.94925,8.87286 -12.74545,9.75784 -0.98055,0.12768 -4.14259,0.1776 -5.15749,0.0814 z"
           style="fill:#aa9913;stroke-width:0.0859582" />
        <path
           inkscape:connector-curvature="0"
           id="path2070"
           d="m 96.532707,123.9431 c -0.118193,-0.0171 -0.563026,-0.0744 -0.98852,-0.12747 -4.314606,-0.53777 -8.122405,-2.87202 -10.48247,-6.42593 -0.860956,-1.29648 -1.289573,-2.13856 -1.164949,-2.28872 0.146413,-0.17642 7.603385,-4.68482 7.748769,-4.68482 0.06604,0 0.347488,0.38488 0.625437,0.8553 1.353627,2.29096 2.478539,3.33554 4.137289,3.84185 0.683338,0.20859 2.488969,0.20888 3.33902,8.6e-4 1.609497,-0.39446 2.565137,-1.39235 3.087557,-3.22407 l 0.18739,-0.65702 0.0431,-17.449516 0.0431,-17.449515 h 4.85664 4.85664 v 17.449515 c 0,18.471646 0.0103,17.955076 -0.39874,19.934506 -1.22255,5.91585 -5.37932,9.48448 -11.86841,10.18916 -0.769147,0.0835 -3.522715,0.1083 -4.021933,0.0362 z m 36.876063,0.003 c -2.81643,-0.31929 -4.81936,-0.82734 -6.87665,-1.74428 -3.28417,-1.46376 -6.13247,-4.00704 -7.95417,-7.10237 -0.26494,-0.45017 -0.46934,-0.88201 -0.45423,-0.95964 0.0267,-0.13705 7.56454,-4.58324 7.77023,-4.58324 0.0539,0 0.24459,0.22241 0.42365,0.49426 0.93875,1.42513 2.3145,2.898 3.38763,3.62674 1.34574,0.91388 2.98658,1.47602 4.75207,1.62803 3.68048,0.3169 6.64585,-1.06289 7.38444,-3.43598 0.22451,-0.72134 0.22097,-1.93486 -0.008,-2.67552 -0.21566,-0.69821 -0.70843,-1.4646 -1.25386,-1.95005 -1.07005,-0.95241 -2.42703,-1.66378 -6.74152,-3.53409 -1.44195,-0.62507 -3.07637,-1.36434 -3.63203,-1.64282 -6.64585,-3.330555 -9.45551,-7.589044 -9.23562,-13.998026 0.054,-1.574439 0.23346,-2.600399 0.67239,-3.844344 1.95635,-5.544411 7.46894,-8.80172 14.38719,-8.501182 4.90138,0.212924 8.34864,1.771844 11.02977,4.987884 0.74111,0.888976 1.82098,2.503548 1.82098,2.722661 0,0.178014 -7.32822,4.909992 -7.50114,4.843637 -0.0618,-0.02371 -0.18832,-0.186046 -0.28117,-0.360742 -0.30546,-0.574711 -1.11827,-1.603097 -1.6826,-2.12887 -1.12595,-1.049023 -2.43263,-1.523833 -4.20244,-1.527049 -0.92219,-0.0017 -1.16883,0.02901 -1.74014,0.216498 -1.85716,0.60947 -2.90161,2.014761 -2.90161,3.904091 0,1.252036 0.33881,2.14865 1.13256,2.997167 0.9388,1.003579 2.24944,1.728623 6.13091,3.391602 2.75511,1.1804 5.53779,2.54924 6.7907,3.340438 3.84165,2.425965 5.85563,4.939915 6.74208,8.415805 0.56944,2.23287 0.57216,5.35496 0.007,7.58753 -1.13597,4.48436 -4.71401,7.83572 -9.81098,9.18941 -1.91189,0.50778 -2.8919,0.62408 -5.49056,0.65156 -1.30012,0.0138 -2.49924,0.01 -2.66471,-0.009 z"
           style="fill:#887b0f;stroke-width:0.0859582" />
        <path
           inkscape:connector-curvature="0"
           id="path2068"
           d="m 97.005477,123.94519 c -2.485471,-0.19696 -4.375097,-0.69269 -6.360907,-1.66873 -2.618654,-1.28711 -4.875858,-3.50502 -6.391616,-6.28035 -0.195857,-0.35861 -0.356103,-0.71094 -0.356103,-0.78295 0,-0.16863 7.718917,-4.849 7.823244,-4.74363 0.04115,0.0416 0.326129,0.4944 0.633297,1.00631 0.70537,1.17552 1.122038,1.71501 1.868335,2.41902 1.069917,1.00931 2.170865,1.41853 3.815248,1.41816 2.465395,-8.6e-4 3.903455,-0.84727 4.594205,-2.70493 0.49363,-1.32752 0.46331,-0.20984 0.51539,-18.996761 l 0.0479,-17.277598 h 4.77068 4.77068 l 0.0249,17.277598 c 0.0176,12.254921 -0.003,17.527481 -0.0707,18.137181 -0.46958,4.22499 -2.07775,7.38824 -4.7978,9.43722 -1.81605,1.36802 -3.99458,2.21899 -6.64869,2.5971 -0.89463,0.12745 -3.445412,0.22518 -4.238043,0.16236 z m 36.446273,-0.0373 c -6.42943,-0.65097 -11.29828,-3.38953 -14.35897,-8.07641 -0.80607,-1.23435 -1.00742,-1.64719 -0.87026,-1.78435 0.062,-0.062 1.81191,-1.09924 3.88878,-2.30508 l 3.77613,-2.19243 0.1561,0.19686 c 0.0859,0.10828 0.43625,0.58368 0.77866,1.05645 1.80295,2.48937 3.73642,3.81107 6.4322,4.39698 0.54668,0.11883 1.07422,0.15373 2.26036,0.14957 1.38747,-0.005 1.63427,-0.0287 2.38994,-0.2307 2.53619,-0.67797 3.98145,-2.13389 4.15914,-4.18979 0.11258,-1.30261 -0.35807,-2.60308 -1.27332,-3.51832 -1.04311,-1.04311 -2.51383,-1.83499 -6.95194,-3.74309 -4.02704,-1.73137 -6.00687,-2.80888 -7.83155,-4.262266 -2.04891,-1.631989 -3.58876,-3.783434 -4.32676,-6.045278 -0.56605,-1.73481 -0.82733,-4.063007 -0.65954,-5.876902 0.17804,-1.924841 0.49681,-3.077787 1.30017,-4.702578 1.8863,-3.815033 5.72448,-6.305981 10.65584,-6.915555 1.77625,-0.219566 4.79209,-0.06936 6.57806,0.327633 3.80405,0.845574 6.75358,3.04762 9.06205,6.765508 0.25406,0.409165 0.27758,0.49045 0.17192,0.594107 -0.20569,0.201798 -7.2247,4.686653 -7.33483,4.686653 -0.0566,0 -0.33163,-0.357801 -0.61108,-0.795113 -1.463,-2.289437 -3.39758,-3.341625 -5.92536,-3.222706 -0.65911,0.03101 -1.12876,0.104318 -1.53384,0.239422 -1.25602,0.418907 -2.25027,1.374645 -2.64836,2.545767 -0.27283,0.802604 -0.27092,2.056444 0.004,2.861197 0.63169,1.846759 1.88614,2.72111 7.09598,4.945916 2.56413,1.094984 5.23744,2.396306 6.51533,3.171553 5.2209,3.167312 7.39389,6.818392 7.39862,12.431182 0.002,2.52259 -0.37896,4.23403 -1.38329,6.21222 -2.00888,3.95683 -6.03172,6.43738 -11.67108,7.19658 -0.93687,0.12612 -4.29276,0.17923 -5.24345,0.083 z"
           style="fill:#645a0b;stroke-width:0.0859582" />
        <path
           inkscape:connector-curvature="0"
           id="path2066"
           d="m 134.31134,123.90768 c -2.98494,-0.15347 -6.1298,-0.92821 -8.39869,-2.06903 -2.66258,-1.33876 -5.04261,-3.41203 -6.6293,-5.77484 -0.56039,-0.83449 -1.08918,-1.75539 -1.08918,-1.89681 0,-0.0967 7.35678,-4.42476 7.64096,-4.49527 0.0937,-0.0233 0.24896,0.13906 0.48209,0.50418 1.62523,2.54533 3.83554,4.25872 6.38005,4.94569 0.78244,0.21124 0.96799,0.22718 2.68854,0.23107 1.66753,0.004 1.9195,-0.0152 2.57875,-0.19361 1.09607,-0.29671 2.05449,-0.7923 2.70001,-1.39615 1.0247,-0.95856 1.42598,-1.84905 1.42598,-3.16444 0,-1.80467 -0.7094,-2.99634 -2.48903,-4.18108 -0.99528,-0.66259 -2.27609,-1.28379 -5.76295,-2.79507 -2.97346,-1.28875 -4.36041,-1.96546 -5.70371,-2.78289 -5.0402,-3.067074 -7.26487,-7.065855 -7.0783,-12.722992 0.0723,-2.19331 0.45424,-3.729171 1.3561,-5.453777 1.84542,-3.528926 5.27616,-5.870059 9.70674,-6.623874 2.70523,-0.460265 5.99444,-0.27447 8.50986,0.480691 3.10387,0.931815 5.56654,2.839385 7.57313,5.866071 0.3261,0.491879 0.59225,0.956053 0.59145,1.031498 -9.5e-4,0.08602 -1.35207,1.002654 -3.62326,2.458044 -1.99199,1.27648 -3.6509,2.332523 -3.68646,2.346763 -0.0356,0.01424 -0.27469,-0.295209 -0.5314,-0.687666 -1.54784,-2.366355 -3.18412,-3.337805 -5.65287,-3.356071 -1.60636,-0.01189 -2.60202,0.334069 -3.57149,1.240955 -0.93615,0.875723 -1.30443,1.873134 -1.21576,3.29264 0.10307,1.649997 0.75402,2.681093 2.36097,3.739716 0.89082,0.586853 2.27901,1.259867 4.96205,2.40568 5.1084,2.181575 7.83924,3.755981 9.90522,5.710652 1.59451,1.50859 2.61122,3.06802 3.24551,4.97799 0.58364,1.75746 0.77546,3.23331 0.70524,5.42585 -0.073,2.27758 -0.44474,3.83588 -1.33769,5.60694 -1.9138,3.79579 -5.87828,6.3502 -11.03496,7.11008 -0.82927,0.1222 -1.33498,0.16177 -3.24546,0.25398 -0.3073,0.0148 -1.10027,-8.6e-4 -1.76214,-0.0349 z m -38.485623,-0.12264 c -2.120117,-0.30211 -3.522121,-0.72146 -5.181147,-1.54972 -2.586915,-1.29151 -4.629441,-3.25265 -6.151592,-5.90646 -0.290535,-0.50654 -0.533848,-0.98859 -0.540696,-1.07122 -0.0092,-0.11061 0.985221,-0.75679 3.769709,-2.44966 2.080189,-1.26467 3.835815,-2.29119 3.901394,-2.28115 0.06558,0.01 0.355686,0.40979 0.644686,0.88832 1.36814,2.26537 2.48485,3.28662 4.135698,3.78214 0.682381,0.20482 2.495821,0.20706 3.330882,0.004 1.440609,-0.35013 2.383369,-1.1555 2.910779,-2.4866 0.48464,-1.22313 0.45392,-0.0678 0.50345,-18.931548 l 0.0456,-17.363557 4.79435,-0.02221 4.79435,-0.02221 -0.0273,17.600664 c -0.0249,16.086341 -0.0399,17.677451 -0.17359,18.493171 -0.54213,3.30717 -1.58804,5.6078 -3.42109,7.52521 -1.84855,1.93361 -4.33867,3.15566 -7.55696,3.70863 -1.13279,0.19465 -4.639114,0.24445 -5.778523,0.0821 z"
           style="fill:#443d07;stroke-width:0.0859582" />
        <path
           inkscape:connector-curvature="0"
           id="path2064"
           d="m 96.36079,123.81769 c -2.084699,-0.21265 -3.895707,-0.72785 -5.71622,-1.62615 -2.23718,-1.10391 -4.059751,-2.72237 -5.516543,-4.89873 -0.531145,-0.79349 -1.145853,-1.90655 -1.143382,-2.07033 0.0015,-0.0962 7.194449,-4.53156 7.603948,-4.6887 0.06103,-0.0234 0.285536,0.27362 0.541385,0.7163 1.705844,2.95149 3.150842,4.0236 5.563164,4.12755 3.474838,0.14973 5.140598,-1.36502 5.456108,-4.96147 0.0546,-0.62193 0.087,-7.11718 0.0875,-17.514714 l 7.4e-4,-16.526191 4.74919,0.02222 4.74919,0.02222 v 17.320577 c 0,16.170878 -0.0102,17.391908 -0.15353,18.395058 -0.969,6.78145 -4.656,10.56192 -11.27891,11.56483 -1.07142,0.16224 -3.855307,0.22845 -4.9426,0.11754 z m 37.39182,0.0433 c -0.16547,-0.019 -0.66833,-0.076 -1.11746,-0.12654 -4.44043,-0.49997 -8.36807,-2.32362 -11.26493,-5.23043 -1.11322,-1.11704 -1.86761,-2.08601 -2.66086,-3.41765 -0.45091,-0.75697 -0.51847,-0.9201 -0.41895,-1.01163 0.10164,-0.0935 6.90798,-4.05859 7.44317,-4.33611 0.17644,-0.0915 0.22192,-0.0509 0.63795,0.56886 1.93287,2.87953 4.22209,4.49224 7.1232,5.01815 0.94243,0.17085 3.13501,0.15024 4.02327,-0.0378 2.28814,-0.48443 3.80297,-1.61998 4.42262,-3.31532 0.26184,-0.71636 0.25661,-2.08202 -0.011,-2.86863 -0.41226,-1.21188 -1.24071,-2.10257 -2.83104,-3.04375 -0.97911,-0.57945 -1.9843,-1.05295 -4.8276,-2.27407 -2.92406,-1.2558 -5.40447,-2.49097 -6.66439,-3.31866 -4.11785,-2.705161 -6.07487,-5.845334 -6.49841,-10.427143 -0.29347,-3.174602 0.41282,-6.130162 2.05141,-8.58439 0.63972,-0.95816 2.0904,-2.409469 3.07166,-3.072987 2.58907,-1.750697 5.32519,-2.516946 8.99972,-2.520364 4.82694,-0.0045 8.0452,1.179302 10.85754,3.993782 1.24168,1.242624 2.85391,3.458609 2.6568,3.651727 -0.1789,0.175268 -7.19626,4.644627 -7.2869,4.641029 -0.0542,-0.0021 -0.29192,-0.318115 -0.5283,-0.702141 -0.59988,-0.97454 -1.80227,-2.175983 -2.57875,-2.576705 -0.90318,-0.466109 -1.67859,-0.675521 -2.70923,-0.731673 -3.0562,-0.166508 -5.16394,1.542757 -5.17233,4.19449 -0.004,1.310055 0.33116,2.234699 1.12557,3.103916 0.89755,0.982059 2.29693,1.759266 6.15428,3.418052 3.92451,1.687665 6.15636,2.83657 7.95114,4.093073 2.20415,1.543104 3.66489,3.159494 4.67658,5.174944 1.49109,2.97048 1.74673,7.51332 0.61286,10.89106 -1.57075,4.6792 -5.7429,7.72135 -11.90822,8.68297 -0.86007,0.13415 -4.59067,0.24892 -5.32941,0.16396 z"
           style="fill:#312c05;stroke-width:0.0859582" />
        <path
           inkscape:connector-curvature="0"
           id="path2062"
           d="m 134.35431,123.81145 c -6.81228,-0.29227 -12.36879,-3.3895 -15.53892,-8.66151 -0.29658,-0.4932 -0.52693,-0.93363 -0.5119,-0.97873 0.015,-0.0451 1.72456,-1.06799 3.79895,-2.27309 3.20129,-1.85977 3.78561,-2.17114 3.86426,-2.05918 0.051,0.0726 0.34408,0.49321 0.65138,0.93479 0.76521,1.09957 2.16662,2.49228 3.16689,3.14722 1.86494,1.22109 4.00488,1.72331 6.60937,1.55112 1.1882,-0.0786 2.10622,-0.31609 3.07449,-0.79554 1.33318,-0.66014 2.17499,-1.59188 2.54813,-2.82037 0.14728,-0.48488 0.17182,-0.7475 0.14091,-1.50783 -0.0447,-1.10066 -0.22767,-1.6736 -0.78204,-2.44932 -0.88603,-1.23983 -2.32812,-2.11228 -6.41981,-3.88392 -4.31789,-1.86959 -5.46277,-2.42393 -7.01379,-3.39598 -4.82996,-3.027008 -6.96655,-6.945268 -6.79767,-12.466126 0.10506,-3.434331 1.20596,-6.065113 3.49031,-8.340594 2.7442,-2.733558 6.77052,-4.12046 11.38328,-3.921064 5.60338,0.242216 9.28524,2.242737 12.14716,6.600103 0.29922,0.455558 0.54402,0.866186 0.54402,0.912505 0,0.08988 -7.06928,4.663092 -7.20822,4.663092 -0.0453,0 -0.30674,-0.338461 -0.58098,-0.752135 -0.59288,-0.894346 -1.69399,-2.015557 -2.36965,-2.412897 -1.46193,-0.859735 -3.70817,-1.087596 -5.27897,-0.535504 -1.83649,0.645474 -2.88031,2.132699 -2.86632,4.083918 0.01,1.342174 0.46199,2.410081 1.38381,3.266772 1.01383,0.942199 2.19787,1.580618 5.87471,3.167558 3.08371,1.330948 4.33008,1.919279 5.74472,2.71172 5.13341,2.875592 7.48112,5.962052 8.09456,10.641662 0.15144,1.15515 0.16711,3.01961 0.0346,4.1121 -0.66585,5.4892 -4.47307,9.44788 -10.48544,10.90255 -2.01626,0.48783 -4.16732,0.66725 -6.69784,0.55868 z m -38.251394,-0.0806 c -1.756707,-0.19751 -3.826571,-0.78213 -5.301573,-1.49741 -2.505736,-1.21512 -4.765644,-3.37605 -6.248945,-5.97527 -0.27189,-0.47644 -0.481783,-0.93174 -0.46643,-1.01177 0.02417,-0.126 7.364303,-4.65833 7.544182,-4.65833 0.03387,0 0.171351,0.2017 0.305523,0.44822 0.859001,1.57826 2.131925,3.09619 3.066994,3.65729 0.988407,0.59311 2.177091,0.85046 3.507078,0.75926 2.544335,-0.17445 3.829035,-1.18499 4.490755,-3.53241 l 0.19385,-0.68767 0.0232,-17.385045 0.0232,-17.385046 h 4.72846 4.72845 l -0.0268,17.556962 c -0.025,16.373999 -0.0371,17.617199 -0.17989,18.450999 -0.59202,3.4567 -1.68089,5.77183 -3.62237,7.70178 -1.98741,1.97561 -4.78418,3.17161 -8.33882,3.56599 -0.908149,0.10075 -3.502909,0.0963 -4.426844,-0.008 z"
           style="fill:#000000;stroke-width:0.0859582" />
      </g>
    </g>
  </g>
</svg>
