<?xml version="1.0" encoding="UTF-8" standalone="no"?>
<!-- Created with Inkscape (http://www.inkscape.org/) -->

<svg
   xmlns:dc="http://purl.org/dc/elements/1.1/"
   xmlns:cc="http://creativecommons.org/ns#"
   xmlns:rdf="http://www.w3.org/1999/02/22-rdf-syntax-ns#"
   xmlns:svg="http://www.w3.org/2000/svg"
   xmlns="http://www.w3.org/2000/svg"
   xmlns:sodipodi="http://sodipodi.sourceforge.net/DTD/sodipodi-0.dtd"
   xmlns:inkscape="http://www.inkscape.org/namespaces/inkscape"
   width="138.01488mm"
   height="91.437851mm"
   viewBox="0 0 138.01488 91.437851"
   version="1.1"
   id="svg8"
   inkscape:version="0.92.4 (5da689c313, 2019-01-14)"
   sodipodi:docname="name.svg">
  <defs
     id="defs2" />
  <sodipodi:namedview
     id="base"
     pagecolor="#ffffff"
     bordercolor="#666666"
     borderopacity="1.0"
     inkscape:pageopacity="0.0"
     inkscape:pageshadow="2"
     inkscape:zoom="0.98994949"
     inkscape:cx="163.76177"
     inkscape:cy="172.72461"
     inkscape:document-units="mm"
     inkscape:current-layer="layer1"
     showgrid="false"
     inkscape:window-width="2880"
     inkscape:window-height="1795"
     inkscape:window-x="-13"
     inkscape:window-y="-13"
     inkscape:window-maximized="1" />
  <metadata
     id="metadata5">
    <rdf:RDF>
      <cc:Work
         rdf:about="">
        <dc:format>image/svg+xml</dc:format>
        <dc:type
           rdf:resource="http://purl.org/dc/dcmitype/StillImage" />
        <dc:title></dc:title>
      </cc:Work>
    </rdf:RDF>
  </metadata>
  <g
     inkscape:label="Layer 1"
     inkscape:groupmode="layer"
     id="layer1"
     transform="translate(-30.095325,-49.051129)">
    <g
       id="g837"
       transform="translate(-7.617179,-37.818638)">
      <path
         style="fill:#343434;fill-opacity:1;stroke-width:0.26458335"
         d="m 74.137051,177.5557 c -1.076828,-2.08614 -2.182006,-6.99309 -2.934872,-13.03073 -0.226822,-1.81901 -0.530321,-4.10413 -0.674439,-5.07805 -0.344398,-2.32734 -0.334889,-11.71464 0.01312,-12.96773 0.371229,-1.33659 1.357887,-2.06256 2.803232,-2.06256 0.635219,0 1.154943,0.0344 1.154943,0.0764 0,0.50573 0.826273,9.85525 0.940252,10.63924 0.08463,0.58208 0.327285,1.68187 0.539242,2.44396 0.460891,1.65715 0.666655,1.74103 4.34134,1.76974 5.241112,0.0409 9.785387,-2.54733 10.878579,-6.19609 1.560124,-5.20722 -8.171291,-10.46151 -21.594205,-11.65937 -3.659008,-0.32653 -6.269432,-0.19087 -7.681672,0.3992 -0.631973,0.26405 -1.161479,0.86835 -1.962147,2.23928 -1.371042,2.34755 -1.989593,2.93349 -3.096763,2.93349 -1.162084,0 -1.392737,-0.50927 -1.58987,-3.51034 -0.184075,-2.80227 0.105221,-3.69989 1.516276,-4.70465 1.458793,-1.03875 7.06365,-2.63274 9.257877,-2.63288 1.288854,-9e-5 1.51856,-0.4557 2.249906,-4.46262 0.652721,-3.57616 0.676079,-3.98239 0.394684,-6.86422 -0.164502,-1.6847 -0.428197,-3.21865 -0.585986,-3.40878 -0.18668,-0.22493 -0.94098,-0.34568 -2.159442,-0.34568 -1.029901,0 -3.820499,-0.24556 -6.201323,-0.54569 -3.305926,-0.41675 -5.455976,-0.52616 -9.099183,-0.46302 -4.646989,0.0805 -4.783481,0.0988 -5.275654,0.70729 -0.725458,0.89687 -0.652618,2.48369 0.396501,8.63782 1.489079,8.73493 1.494641,9.09562 0.150975,9.79046 -3.345792,1.73018 -5.400933,-2.78613 -5.720251,-12.57061 -0.158611,-4.86017 -0.164844,-4.90041 -0.881121,-5.68854 -1.90741,-2.09877 -2.083154,-3.17269 -0.692751,-4.2332 0.888653,-0.67781 0.905041,-0.72721 1.079702,-3.25461 0.630794,-9.12781 1.215295,-13.38064 2.269358,-16.511851 1.297804,-3.855272 2.862836,-6.190388 5.327766,-7.949325 2.509407,-1.790676 3.924008,-2.182267 7.883326,-2.182267 3.159032,0 3.384386,0.037 5.027083,0.825394 6.307434,3.027177 10.323807,11.014752 12.72131,25.299549 1.141476,6.80115 1.642687,17.01542 1.035524,21.10318 -0.236286,1.59081 -0.213847,1.75452 0.299215,2.18282 0.54534,0.45524 2.612747,0.6646 2.612657,0.26458 -2.6e-5,-0.10914 -0.17862,-1.13165 -0.396875,-2.27223 -0.220353,-1.15154 -0.39683,-3.53796 -0.39683,-5.36612 0,-3.554 0.150757,-3.91321 1.40367,-3.34457 0.468278,0.21253 0.976561,0.0654 2.625352,-0.75983 2.735715,-1.36929 4.326605,-1.41129 6.193682,-0.1635 2.293366,1.53268 4.064797,6.05603 4.064797,10.37948 0,2.49542 -0.493917,3.84187 -1.409312,3.84187 -0.989748,0 -1.158816,-0.46139 -1.163407,-3.175 -0.0091,-5.37839 -2.026587,-9.525 -4.634286,-9.525 -2.265148,0 -4.434663,2.17685 -4.434663,4.44966 0,1.27305 1.089444,6.48907 1.425396,6.82448 0.161917,0.16166 1.355158,0.61791 2.651646,1.01388 7.51231,2.29439 12.288941,6.10268 13.537581,10.79318 0.20392,0.76602 0.372177,2.43852 0.373904,3.71666 0.0026,1.95761 -0.101012,2.52944 -0.657653,3.62792 -1.946336,3.84091 -8.326999,7.58094 -15.081915,8.84027 -1.309688,0.24417 -2.647328,0.50022 -2.972533,0.56902 -0.816063,0.17263 -0.952363,0.97828 -0.600401,3.54888 0.429575,3.13742 0.373851,6.43933 -0.124949,7.4039 -0.777581,1.50368 -2.511036,1.83835 -3.146396,0.60747 z M 67.10918,115.95166 c 1.002395,-1.20781 0.186002,-7.87418 -1.597692,-13.04614 -2.498653,-7.245051 -6.683462,-11.405554 -11.472191,-11.405554 -2.109506,0 -3.349392,0.508703 -4.832506,1.982691 -2.258879,2.244981 -3.624745,5.860771 -4.476092,11.849333 -0.489202,3.44116 -0.527588,9.28044 -0.06343,9.64946 0.313386,0.24916 5.534161,0.65153 14.353646,1.10625 6.756768,0.34837 7.699402,0.33252 8.088268,-0.13604 z m 33.62592,61.45659 c -0.890232,-1.07267 -1.71683,-7.40099 -1.579119,-12.08953 0.07846,-2.67138 0.105034,-2.78145 0.691475,-2.86458 0.984974,-0.13963 1.374504,0.40302 1.374504,1.91487 0,0.75172 0.35718,3.32221 0.79375,5.71221 0.90133,4.93443 0.99041,6.64471 0.37797,7.25714 -0.50583,0.50583 -1.27005,0.53803 -1.65858,0.0699 z m 8.28315,0.0741 c -1.73139,-0.30756 -3.03356,-0.8625 -4.06969,-1.73434 -0.9357,-0.78734 -1.71436,-2.10881 -1.47284,-2.49959 0.32157,-0.52032 1.69234,-0.23185 3.19341,0.67205 0.8484,0.51088 1.96415,1.046 2.47945,1.18915 1.27965,0.3555 5.22899,0.30425 6.35195,-0.0824 1.223,-0.42112 1.8201,-1.46651 1.38415,-2.42332 -0.46233,-1.0147 -2.12282,-1.61815 -5.44083,-1.97731 -5.3982,-0.58432 -7.31148,-1.89922 -7.31148,-5.02483 0,-2.0364 2.02685,-3.45808 5.2281,-3.66712 2.18588,-0.14273 3.81568,0.32918 4.90748,1.42098 1.39472,1.39473 1.08312,3.94747 -0.48185,3.94747 -0.76159,0 -0.78836,-0.0408 -0.73968,-1.12862 0.0683,-1.52707 -0.70481,-2.05382 -2.97606,-2.02762 -2.62644,0.0303 -4.10576,1.23913 -3.31792,2.71123 0.46955,0.87735 1.9422,1.34259 5.60454,1.77056 5.81555,0.6796 7.51792,1.83226 7.31763,4.95468 -0.11076,1.7267 -0.67475,2.52404 -2.44536,3.45711 -0.86197,0.45424 -1.59835,0.56893 -3.96875,0.61812 -1.60073,0.0332 -3.50974,-0.046 -4.24225,-0.17617 z m 17.72709,-0.0133 c -3.63802,-0.6098 -5.7194,-2.53096 -5.76144,-5.31795 -0.0244,-1.61844 0.99973,-3.17004 2.84654,-4.31256 1.21536,-0.75188 1.45366,-0.80001 3.96057,-0.80001 1.46707,0 3.11389,0.10254 3.65959,0.22788 0.95306,0.2189 0.99219,0.2004 0.99219,-0.46893 0,-0.78694 -1.76423,-2.8704 -2.9497,-3.48343 -0.88537,-0.45784 -2.08175,-0.48378 -3.00075,-0.0651 -0.56345,0.25673 -0.75866,0.23652 -1.11009,-0.1149 -0.63411,-0.63411 -0.0348,-1.88582 1.17865,-2.46163 1.28122,-0.60798 3.0089,-0.20591 5.03359,1.17145 3.21519,2.18721 5.02498,6.12393 5.21876,11.35205 0.10969,2.95944 0.14067,2.92682 -3.7051,3.90238 -2.66344,0.67564 -4.05869,0.75693 -6.36281,0.37071 z m 6.22662,-2.98461 c 1.49474,-0.26263 1.73124,-0.38304 1.80731,-0.9202 0.0661,-0.46646 -0.32326,-1.02745 -1.5875,-2.28743 -2.33763,-2.32978 -3.77806,-2.69639 -6.84446,-1.74202 -3.5655,1.1097 -4.2765,3.3694 -1.47118,4.67565 1.14035,0.53098 1.73765,0.6241 3.86249,0.60214 1.38245,-0.0143 3.28745,-0.16194 4.23334,-0.32814 z m 7.54113,2.58379 c -1.26943,-1.36974 -1.97977,-4.84722 -1.98289,-9.70728 -0.002,-2.64034 0.0641,-3.14252 0.42993,-3.28291 0.23756,-0.0912 0.65456,-0.0267 0.92667,0.14323 0.41075,0.25652 0.85303,0.12884 2.60492,-0.75199 2.80408,-1.40987 4.37495,-1.46033 6.25919,-0.20107 2.29337,1.53268 4.0648,6.05603 4.0648,10.37947 0,2.49543 -0.49392,3.84188 -1.40931,3.84188 -0.98975,0 -1.15882,-0.46139 -1.16341,-3.175 -0.009,-5.37839 -2.02659,-9.525 -4.63429,-9.525 -1.55733,0 -3.19002,1.03558 -3.88008,2.46105 -0.71012,1.4669 -0.69764,2.17374 0.10688,6.05701 0.85343,4.11933 0.8525,4.44653 -0.0127,4.44653 -0.38558,0 -0.94616,-0.29358 -1.30977,-0.68592 z m 16.31368,0.34003 c -0.89023,-1.07267 -1.71683,-7.40099 -1.57912,-12.08953 0.0785,-2.67138 0.10503,-2.78145 0.69147,-2.86458 0.98816,-0.14008 1.3745,0.40243 1.3745,1.93008 0,0.76007 0.29958,2.97792 0.66572,4.92854 0.95685,5.09757 1.11395,7.41766 0.54107,7.99055 -0.53722,0.53721 -1.29587,0.58421 -1.69364,0.10494 z M 97.830209,159.27543 c -0.217959,-0.14255 -0.317323,-0.61562 -0.264583,-1.25969 0.07299,-0.89135 0.179083,-1.04236 0.781362,-1.11216 0.503338,-0.0583 0.855678,0.12109 1.268537,0.64596 0.837555,1.06478 0.638715,1.79943 -0.510236,1.88511 -0.509323,0.038 -1.083109,-0.0337 -1.27508,-0.15922 z m 56.096751,-0.095 c -0.44662,-0.44661 -0.39509,-1.66998 0.0872,-2.07025 0.81331,-0.67498 2.55555,0.92215 2.15229,1.97303 -0.19128,0.49848 -1.76973,0.567 -2.2395,0.0972 z M 96.335604,138.86971 c -0.769665,-0.85047 -1.190495,-3.32771 -1.194932,-7.03401 -0.0043,-3.61305 -0.141111,-4.08646 -1.181529,-4.08929 -1.089983,-0.003 -2.527962,-0.56471 -2.814069,-1.0993 -0.429572,-0.80266 0.12232,-1.20479 2.00709,-1.46245 l 1.5875,-0.21702 0.132291,-3.57082 0.132292,-3.57081 0.83448,-0.081 c 1.311003,-0.12728 1.678268,0.63942 1.682962,3.51332 0.0054,3.30836 0.22805,3.67607 2.327423,3.84388 1.678228,0.13414 2.154128,0.43775 2.162548,1.3796 0.006,0.64738 -0.81719,1.0015 -2.327412,1.0015 -2.006317,0 -2.006124,-5.3e-4 -1.785599,5.97242 0.1431,3.87603 0.11126,5.26279 -0.127445,5.55041 -0.434258,0.52325 -0.876652,0.48121 -1.4356,-0.13642 z m 10.508136,-0.2421 c -2.87303,-0.99252 -4.33661,-3.12064 -4.36284,-6.34382 -0.0188,-2.31058 0.58047,-3.70843 2.22298,-5.18519 1.55117,-1.39463 3.67021,-2.25062 6.04275,-2.44096 1.53216,-0.12292 1.87913,-0.0545 3.17533,0.62595 1.70132,0.89315 2.95513,2.55257 3.59706,4.76074 0.53909,1.85441 0.31215,3.54202 -0.71915,5.34774 -1.74439,3.05432 -6.246,4.51725 -9.95613,3.23554 z m 4.43238,-2.43262 c 1.49849,-0.67599 3.60812,-2.72416 3.98635,-3.87022 0.56054,-1.69845 -0.49173,-3.33399 -2.9528,-4.58953 -2.10414,-1.07346 -4.89528,-0.38707 -6.74308,1.65822 -0.92726,1.02636 -0.95868,1.12611 -0.85713,2.72087 0.12724,1.99836 1.01866,3.35991 2.69949,4.12321 1.39963,0.6356 2.388,0.62472 3.86717,-0.0426 z m 9.92239,2.24406 c -1.26943,-1.36974 -1.97977,-4.84722 -1.98289,-9.70728 -0.002,-2.64034 0.0641,-3.14251 0.42993,-3.28291 0.23755,-0.0912 0.65456,-0.0267 0.92667,0.14324 0.41075,0.25651 0.85302,0.12884 2.60491,-0.752 2.80409,-1.40986 4.37496,-1.46033 6.2592,-0.20107 2.29336,1.53268 4.06479,6.05603 4.06479,10.37948 0,2.49542 -0.49391,3.84187 -1.40931,3.84187 -0.98975,0 -1.15881,-0.46139 -1.1634,-3.175 -0.009,-5.37839 -2.02659,-9.525 -4.63429,-9.525 -1.55733,0 -3.19003,1.03559 -3.88008,2.46105 -0.71012,1.4669 -0.69765,2.17374 0.10687,6.05701 0.85344,4.11934 0.85251,4.44653 -0.0126,4.44653 -0.38558,0 -0.94617,-0.29357 -1.30978,-0.68592 z m 20.077,0.32934 c -4.75169,-1.21268 -7.41536,-5.29598 -6.70805,-10.28319 0.45449,-3.20453 1.97357,-5.40617 4.62529,-6.70354 2.66876,-1.3057 5.70613,-0.52954 6.89051,1.76079 0.57798,1.1177 0.76931,3.16553 0.40023,4.28385 -0.72585,2.19934 -3.95263,3.92967 -7.38439,3.95979 l -1.94265,0.017 0.16222,0.81113 c 0.23049,1.15243 1.77686,2.6179 3.39645,3.21876 1.19272,0.44249 1.98175,0.50541 5.68444,0.45325 2.36472,-0.0333 4.29948,0.0352 4.29948,0.15231 0,0.46058 -1.31971,1.41323 -2.67498,1.93097 -1.77227,0.67705 -4.92769,0.86353 -6.74855,0.39883 z m 0.80952,-10.04955 c 0.86484,-0.48115 1.8011,-1.18109 2.08058,-1.55542 0.44192,-0.5919 0.46744,-0.80393 0.19583,-1.62691 -0.37552,-1.13787 -1.65894,-2.28654 -2.55474,-2.28654 -2.17907,0 -4.86599,2.74083 -4.86599,4.96362 0,1.08991 0.45142,1.38677 2.10343,1.38322 1.1647,-0.002 1.79369,-0.1841 3.04089,-0.87797 z m 23.49934,10.11315 c -4.57961,-0.76335 -6.88507,-4.0688 -5.18808,-7.43841 0.53611,-1.06451 1.37842,-1.78122 2.95945,-2.51814 1.29042,-0.60147 1.63192,-0.64573 3.96875,-0.51437 1.40627,0.079 2.88427,0.22543 3.28445,0.32528 0.6558,0.16364 0.7276,0.11265 0.7276,-0.51666 0,-0.78837 -1.76292,-2.87112 -2.9497,-3.48483 -0.88536,-0.45784 -2.08175,-0.48378 -3.00075,-0.065 -0.56345,0.25672 -0.75866,0.23652 -1.11008,-0.1149 -0.63412,-0.63411 -0.0348,-1.88583 1.17864,-2.46164 1.28122,-0.60798 3.0089,-0.2059 5.0336,1.17145 3.22117,2.19129 5.02637,6.12638 5.20975,11.35656 0.1039,2.96328 0.14055,2.92463 -3.6961,3.89787 -2.67814,0.67937 -4.05241,0.75707 -6.41753,0.36284 z m 6.28134,-2.97673 c 1.49474,-0.26263 1.73124,-0.38304 1.80731,-0.9202 0.0661,-0.46646 -0.32326,-1.02744 -1.5875,-2.28743 -2.33762,-2.32978 -3.77806,-2.69639 -6.84446,-1.74202 -3.5655,1.10971 -4.2765,3.3694 -1.47118,4.67565 1.14035,0.53099 1.73765,0.6241 3.8625,0.60215 1.38244,-0.0143 3.28744,-0.16195 4.23333,-0.32815 z m -19.40681,1.88064 c -0.30893,-2.14571 -0.46843,-11.46131 -0.25481,-14.88281 0.21173,-3.39127 0.22363,-3.43958 0.84765,-3.43958 0.37586,0 0.84457,0.2835 1.15408,0.69806 0.49062,0.65713 0.52333,1.18464 0.55772,8.99584 0.0405,9.19608 -0.0381,9.75297 -1.37728,9.75297 -0.69876,0 -0.77957,-0.098 -0.92736,-1.12448 z m 3.9673,0.014 c -0.31086,-2.11786 -0.46928,-11.43573 -0.25328,-14.89684 0.20166,-3.23124 0.24887,-3.44446 0.77945,-3.52013 0.35356,-0.0504 0.75932,0.16678 1.08499,0.5808 0.45061,0.57285 0.54441,1.25623 0.70109,5.10763 0.26935,6.62093 0.21294,10.90077 -0.16323,12.38378 -0.30464,1.20104 -0.41139,1.3303 -1.15873,1.40309 -0.78465,0.0764 -0.831,0.0269 -0.99029,-1.05833 z"
         id="path841"
         inkscape:connector-curvature="0" />
    </g>
  </g>
</svg>
